<?xml version="1.0" encoding="UTF-8"?>
<svg xmlns="http://www.w3.org/2000/svg" xmlns:xlink="http://www.w3.org/1999/xlink" version="1.2" >
<font id="Freight Disp Book">
<font-face  font-family="Freight" units-per-em="1000" ascent="750" descent="-250" font-style="normal" font-weight="400" font-stretch="normal" cap-height="625" x-height="429" underline-position="-156" underline-thickness="20" />
<missing-glyph  horiz-adv-x="500" d="" />
<glyph glyph-name="NULL" d="" />
<glyph glyph-name="CR" unicode="&#xd;" horiz-adv-x="250" d="" />
<glyph glyph-name="space" unicode="&#x20;" horiz-adv-x="139" d="" />
<glyph glyph-name="exclam" unicode="&#x21;" horiz-adv-x="248" d="M82 590 L120 184 C121 177 131 177 132 184 L169 590 C172 614 170 640 130 640 L122 640 C81 640 79 614 82 590 L82 590 Z M126 -15 C157 -15 178 11 178 38 C178 65 157 89 126 89 C94 89 70 65 70 38 C70 11 94 -15 126 -15 L126 -15 Z " />
<glyph glyph-name="quotedbl" unicode="&#x22;" horiz-adv-x="313" d="M264 646 L151 403 L161 403 L317 624 L265 646 L264 646 Z M128 642 L4 403 L15 403 L161 629 L119 646 L128 642 Z " />
<glyph glyph-name="numbersign" unicode="&#x23;" horiz-adv-x="514" d="M314 205 L147 205 L204 417 L370 417 L314 205 Z M125 189 L74 -5 L92 -5 L143 189 L310 189 L259 -5 L277 -5 L328 189 L468 189 L468 205 L333 205 L388 417 L529 417 L529 434 L393 434 L445 632 L427 632 L374 434 L207 434 L260 632 L242 632 L190 434 L49 434 L49 417 L185 417 L129 205 L-11 205 L-11 189 L125 189 Z " />
<glyph glyph-name="dollar" unicode="&#x24;" horiz-adv-x="459" d="M137 -8 L96 -165 L113 -165 L154 -10 C177 -13 198 -14 219 -14 C350 -14 439 75 439 174 C439 282 357 331 254 365 L253 365 C252 367 317 602 316 602 C326 597 335 592 342 587 L395 467 L411 467 L405 632 L361 619 C350 623 338 626 323 630 L352 739 L335 739 L307 633 C287 636 265 638 241 638 C118 638 47 556 47 467 C47 369 121 326 213 294 L215 294 C216 294 216 294 216 293 L144 20 C118 31 97 48 81 69 L40 170 L24 170 L35 16 C66 5 101 -3 137 -8 L137 -8 Z M300 609 L237 371 C161 401 109 432 109 503 C109 567 159 620 236 620 C259 620 280 616 300 609 L300 609 Z M160 14 C173 65 185 111 196 151 C215 220 232 287 232 287 C321 255 372 216 372 140 C372 62 310 5 223 5 C200 5 179 8 160 14 L160 14 Z " />
<glyph glyph-name="percent" unicode="&#x25;" horiz-adv-x="594" d="M147 385 C76 385 33 438 33 503 C33 568 78 623 147 623 C219 623 263 568 263 503 C263 438 219 385 147 385 L147 385 Z M147 365 C232 365 285 428 285 503 C285 578 232 643 147 643 C63 643 11 578 11 503 C11 428 63 365 147 365 L147 365 Z M446 3 C374 3 332 55 332 122 C332 186 375 241 446 241 C517 241 561 186 561 122 C561 55 518 3 446 3 L446 3 Z M446 -17 C531 -17 583 46 583 121 C583 196 531 261 446 261 C362 261 310 196 310 121 C310 46 362 -17 446 -17 L446 -17 Z M511 640 L58 -14 L82 -14 L534 640 L511 640 Z " />
<glyph glyph-name="ampersand" unicode="&#x26;" horiz-adv-x="696" d="M194 -15 C287 -15 354 54 421 137 C474 25 513 -15 575 -15 C632 -15 676 36 708 70 L698 81 C678 60 648 35 613 35 C562 35 534 77 473 197 L569 319 C608 371 629 389 674 392 L694 394 L697 408 L467 408 L470 394 L490 392 C541 387 557 375 557 359 C557 338 511 272 464 212 C427 281 350 358 284 393 C371 422 409 472 409 524 C409 579 356 640 257 640 C169 640 96 564 96 495 C96 439 133 399 189 368 C82 333 13 251 13 160 C13 68 82 -15 194 -15 L194 -15 Z M267 399 C194 432 161 464 161 524 C161 576 198 623 252 623 C309 623 343 568 343 518 C343 467 327 427 267 399 L267 399 Z M234 44 C147 44 86 109 86 193 C86 257 121 319 204 360 C292 324 364 250 412 153 C352 85 302 44 234 44 L234 44 Z " />
<glyph glyph-name="quotesingle" unicode="&#x27;" horiz-adv-x="161" d="M128 642 L4 403 L15 403 L161 629 L119 646 L128 642 Z " />
<glyph glyph-name="parenleft" unicode="&#x28;" horiz-adv-x="340" d="M326 -271 L336 -255 C233 -199 87 -36 87 192 C87 418 233 582 336 638 L326 654 C219 598 64 436 64 192 C64 -51 219 -212 326 -271 L326 -271 Z " />
<glyph glyph-name="parenright" unicode="&#x29;" horiz-adv-x="340" d="M4 -255 L14 -271 C121 -212 276 -51 276 192 C276 436 121 598 14 654 L4 638 C107 582 253 418 253 192 C253 -36 107 -199 4 -255 L4 -255 Z " />
<glyph glyph-name="asterisk" unicode="&#x2a;" horiz-adv-x="316" d="M155 368 L200 324 C201 324 209 326 209 327 L220 385 L161 469 C160 472 165 478 166 477 L265 446 L317 475 C320 476 320 484 317 483 L265 514 L166 483 C165 482 160 488 161 491 L223 575 L210 635 C211 635 203 638 202 637 L159 596 L155 493 C155 490 147 487 146 490 L89 574 L25 581 C22 581 19 576 20 573 L49 519 L142 486 C145 483 145 479 142 476 L49 446 L21 389 C21 388 26 382 27 382 L89 392 L147 471 C148 474 154 471 154 468 L155 368 Z " />
<glyph glyph-name="plus" unicode="&#x2b;" horiz-adv-x="447" d="M212 225 L212 24 L235 24 L236 225 L433 225 L430 247 L235 247 L235 445 L212 445 L212 247 L17 247 L14 225 L212 225 Z " />
<glyph glyph-name="comma" unicode="&#x2c;" horiz-adv-x="181" d="M25 -119 L34 -127 C98 -98 159 -34 159 29 C159 80 126 110 83 110 C40 110 21 75 32 48 C54 62 104 43 104 -7 C104 -57 64 -98 25 -119 L25 -119 Z " />
<glyph glyph-name="hyphen" unicode="&#x2d;" horiz-adv-x="294" d="M26 256 L23 219 L270 219 L271 256 L26 256 Z " />
<glyph glyph-name="period" unicode="&#x2e;" horiz-adv-x="197" d="M99 -13 C131 -13 153 12 153 41 C153 69 131 94 99 94 C67 94 43 69 43 41 C43 12 67 -13 99 -13 L99 -13 Z " />
<glyph glyph-name="slash" unicode="&#x2f;" horiz-adv-x="258" d="M225 640 L14 -236 L35 -236 L246 640 L225 640 Z " />
<glyph glyph-name="zero" unicode="0" horiz-adv-x="539" d="M272 8 C168 8 108 104 108 245 C108 363 172 461 268 461 C368 461 431 362 431 230 C431 107 367 8 272 8 L272 8 Z M269 -12 C406 -12 505 89 505 236 C505 380 403 484 271 484 C135 484 33 379 33 234 C33 90 134 -12 269 -12 L269 -12 Z " />
<glyph glyph-name="one" unicode="1" horiz-adv-x="333" d="M61 15 L58 0 L296 0 L293 15 L249 19 C213 22 207 25 207 33 L207 479 L37 454 L34 442 L141 431 L141 35 C141 24 132 20 107 19 L61 15 Z " />
<glyph glyph-name="two" unicode="2" horiz-adv-x="437" d="M21 20 L24 0 L391 0 L424 178 L410 179 L402 157 C375 85 353 60 285 60 L96 60 L96 62 C260 195 350 263 350 358 C350 429 290 483 215 483 C136 483 77 430 36 349 L47 343 C82 402 122 429 178 429 C241 429 281 384 281 323 C281 240 216 178 21 20 L21 20 Z " />
<glyph glyph-name="three" unicode="3" horiz-adv-x="400" d="M119 -201 C261 -201 372 -94 372 21 C372 117 304 187 189 184 L189 186 C264 234 329 280 329 357 C329 426 270 483 193 483 C114 483 53 434 14 351 C13 351 24 344 25 344 C56 401 99 430 154 430 C218 430 260 384 260 324 C260 241 184 201 70 126 L76 114 C101 125 130 133 161 133 C253 133 306 72 306 -16 C306 -119 228 -178 152 -178 C137 -178 114 -171 111 -171 C116 -126 92 -87 53 -87 C26 -87 7 -105 7 -132 C7 -167 43 -201 119 -201 L119 -201 Z " />
<glyph glyph-name="four" unicode="4" horiz-adv-x="460" d="M273 70 L59 70 L271 378 L273 378 L273 70 Z M273 15 L273 -184 L337 -184 L337 15 L438 15 L454 69 L337 70 L337 475 L318 475 L9 27 L10 15 L273 15 Z " />
<glyph glyph-name="five" unicode="5" horiz-adv-x="389" d="M96 -201 C235 -201 346 -91 346 26 C346 137 254 220 79 255 L116 399 L350 399 L363 469 L114 469 L44 194 C191 167 285 93 285 -10 C285 -103 210 -177 133 -177 C118 -177 105 -174 94 -171 C89 -134 68 -93 32 -93 C5 -93 -14 -112 -14 -136 C-14 -177 24 -201 96 -201 L96 -201 Z " />
<glyph glyph-name="six" unicode="6" horiz-adv-x="483" d="M254 5 C160 5 105 105 105 228 C105 248 109 279 113 287 C146 324 192 346 241 346 C321 346 382 273 382 174 C382 71 333 5 254 5 L254 5 Z M246 -13 C356 -13 454 70 454 199 C454 306 382 385 279 385 C216 385 156 351 115 307 L114 309 C149 461 260 608 458 640 L455 653 C215 629 31 448 31 232 C31 94 113 -13 246 -13 L246 -13 Z " />
<glyph glyph-name="seven" unicode="7" horiz-adv-x="424" d="M372 399 L83 -184 L139 -184 L412 454 L410 469 L43 469 L24 314 L31 314 C35 314 38 313 39 313 C40 314 41 319 44 326 L48 338 C64 393 83 404 170 404 L371 404 L372 399 Z " />
<glyph glyph-name="eight" unicode="8" horiz-adv-x="465" d="M272 345 C187 385 112 424 112 507 C112 567 157 625 224 625 C300 625 348 552 348 480 C348 420 319 376 272 345 L272 345 Z M243 3 C154 3 99 71 99 152 C99 221 140 273 197 304 C285 264 375 217 375 126 C375 55 327 3 243 3 L243 3 Z M230 -14 C347 -14 434 66 434 163 C434 253 368 295 286 338 L286 339 C362 370 414 422 414 482 C414 573 337 641 236 641 C124 641 52 551 52 469 C52 392 110 352 183 312 L183 311 C95 284 32 224 32 150 C32 57 119 -14 230 -14 L230 -14 Z " />
<glyph glyph-name="nine" unicode="9" horiz-adv-x="483" d="M240 127 C161 127 99 203 99 302 C99 402 151 469 228 469 C322 469 378 366 378 246 C378 225 372 195 369 186 C335 147 292 127 240 127 L240 127 Z M24 -165 L27 -178 C267 -154 451 24 451 241 C451 380 368 487 237 487 C127 487 29 404 29 276 C29 169 100 88 204 88 C267 88 326 122 366 165 L368 165 C333 13 221 -133 24 -165 L24 -165 Z " />
<glyph glyph-name="colon" unicode="&#x3a;" horiz-adv-x="195" d="M99 294 C131 294 153 321 153 349 C153 376 131 400 99 400 C67 400 43 376 43 349 C43 321 67 294 99 294 L99 294 Z M99 -13 C131 -13 153 12 153 41 C153 68 131 92 99 92 C67 92 43 68 43 41 C43 12 67 -13 99 -13 L99 -13 Z " />
<glyph glyph-name="semicolon" unicode="&#x3b;" horiz-adv-x="181" d="M94 294 C125 294 148 320 148 348 C148 376 125 400 94 400 C62 400 38 376 38 348 C38 320 62 294 94 294 L94 294 Z M25 -119 L34 -126 C98 -97 159 -35 159 29 C159 78 126 109 83 109 C41 109 21 76 32 48 C54 62 104 42 104 -7 C104 -58 64 -96 25 -119 L25 -119 Z " />
<glyph glyph-name="less" unicode="&#x3c;" horiz-adv-x="438" d="M12 228 L411 34 L418 55 L49 235 L49 237 L418 415 L411 436 L12 243 L12 228 Z " />
<glyph glyph-name="equal" unicode="&#x3d;" horiz-adv-x="444" d="M23 334 L26 311 L418 311 L421 334 L23 334 Z M26 159 L23 137 L421 137 L418 159 L26 159 Z " />
<glyph glyph-name="greater" unicode="&#x3e;" horiz-adv-x="438" d="M20 55 L27 34 L426 228 L426 243 L27 436 L20 415 L389 237 L389 235 L20 55 Z " />
<glyph glyph-name="question" unicode="&#x3f;" horiz-adv-x="315" d="M142 179 L157 179 C129 206 103 236 103 267 C103 308 140 319 187 340 C256 372 285 388 285 462 C285 550 210 640 102 640 C53 640 34 624 34 601 C34 584 37 572 44 563 C60 567 84 572 112 572 C222 572 266 520 266 478 C266 447 234 431 169 403 C97 371 64 354 64 295 C64 256 110 206 142 179 L142 179 Z M145 -14 C177 -14 198 11 198 39 C198 66 177 89 145 89 C114 89 91 66 91 39 C91 11 114 -14 145 -14 L145 -14 Z " />
<glyph glyph-name="at" unicode="&#x40;" horiz-adv-x="786" d="M306 106 C281 106 256 130 256 173 C256 246 307 361 353 404 C368 419 384 426 401 426 C440 426 480 381 483 352 C483 341 473 314 462 294 C405 189 343 106 306 106 L306 106 Z M392 -110 C511 -110 615 -48 666 33 L657 46 C608 -32 508 -93 394 -93 C192 -93 46 48 49 245 C52 453 217 624 421 624 C603 624 744 496 741 322 C738 189 647 84 554 84 C494 84 473 110 500 185 L530 302 L595 476 L538 479 L503 376 L499 376 C495 427 470 463 434 463 C399 463 365 445 334 414 C267 353 190 240 190 151 C190 102 229 62 276 62 C329 62 386 141 455 250 L460 250 C449 225 431 148 431 131 C430 91 460 53 533 53 C649 53 756 175 759 322 C762 506 614 641 422 641 C208 641 34 464 31 245 C28 37 180 -110 392 -110 L392 -110 Z " />
<glyph glyph-name="A" unicode="A" horiz-adv-x="616" d="M133 127 L180 259 L377 259 L435 82 C450 35 440 21 405 18 L364 15 L361 0 L619 0 L616 15 L578 18 C540 21 534 33 513 91 L328 638 L317 638 C309 623 279 597 261 592 L269 563 L136 191 C80 35 70 26 20 18 L-5 15 L-8 0 L206 0 L203 15 L171 18 C103 26 100 37 133 127 L133 127 Z M283 544 L370 279 L186 279 C187 279 210 346 233 412 C246 451 262 495 280 544 L283 544 Z " />
<glyph glyph-name="B" unicode="B" horiz-adv-x="566" d="M254 346 L194 346 L194 606 L251 606 C360 606 411 563 411 476 C411 407 359 349 254 346 L254 346 Z M268 17 L194 33 L194 326 C205 326 244 328 259 328 C368 328 443 263 443 167 C443 88 393 24 293 19 C296 19 289 19 282 18 C278 17 273 17 268 17 L268 17 Z M32 15 L29 0 L273 0 C437 0 528 67 528 172 C528 257 459 331 320 339 L320 342 C445 361 497 420 497 490 C497 565 433 625 272 625 L30 625 L33 610 L68 607 C111 603 115 600 115 593 L115 34 C115 27 104 22 75 19 L32 15 Z " />
<glyph glyph-name="C" unicode="C" horiz-adv-x="666" d="M376 -15 C444 -15 518 5 557 22 L593 23 L626 186 L609 186 L580 116 C531 46 480 4 381 4 C225 4 119 131 119 317 C119 488 217 622 379 622 C448 622 500 604 528 583 L593 438 L609 438 L603 627 L544 604 C508 621 449 640 382 640 C177 640 33 503 33 307 C33 112 179 -15 376 -15 L376 -15 Z " />
<glyph glyph-name="D" unicode="D" horiz-adv-x="658" d="M272 18 L194 34 L194 608 L252 608 C449 608 542 474 542 303 C542 153 451 23 272 18 L272 18 Z M32 15 L29 0 L248 0 C492 0 627 142 627 326 C627 505 499 631 268 628 L30 625 L33 610 L68 607 C111 603 115 601 115 594 L115 34 C115 27 104 22 75 19 L32 15 Z " />
<glyph glyph-name="E" unicode="E" horiz-adv-x="577" d="M31 15 L28 0 L508 0 L542 184 L525 185 L513 146 C484 73 451 18 303 18 L194 21 L194 316 L258 315 C354 312 371 306 374 251 L376 223 L390 222 L410 424 L396 425 L386 396 C370 344 354 337 263 334 L194 333 L194 608 L295 608 C428 608 453 571 482 488 L492 447 L508 447 L495 625 L29 625 L32 610 L69 607 C110 603 115 601 115 594 L115 34 C115 27 101 22 74 19 L31 15 Z " />
<glyph glyph-name="F" unicode="F" horiz-adv-x="546" d="M31 15 L28 0 L301 0 L298 15 L240 18 C199 21 194 25 194 33 L194 310 L253 309 C350 306 366 300 369 245 L371 217 L385 216 L405 418 L391 418 L381 390 C365 338 350 331 258 328 L194 327 L194 608 L289 608 C435 608 458 566 485 483 L494 444 L511 444 L497 625 L29 625 L32 610 L70 607 C111 603 115 601 115 594 L115 34 C115 27 107 22 76 19 L31 15 Z " />
<glyph glyph-name="G" unicode="G" horiz-adv-x="692" d="M375 -14 C458 -14 573 15 650 42 L649 53 L593 51 L593 239 C593 246 603 251 632 254 L675 259 L678 273 L417 273 L420 259 L468 255 C509 252 517 249 517 242 L517 37 C488 18 434 4 383 4 C228 4 119 130 119 315 C119 486 220 622 379 622 C451 622 500 604 527 583 L588 439 L604 439 L601 627 L543 605 C508 622 449 640 384 640 C179 640 33 501 33 305 C33 110 178 -14 375 -14 L375 -14 Z " />
<glyph glyph-name="H" unicode="H" horiz-adv-x="723" d="M32 15 L29 0 L281 0 L278 15 L240 18 C199 22 194 24 194 31 L194 309 L529 309 L529 34 C529 27 518 22 489 19 L444 15 L441 0 L692 0 L689 15 L654 18 C613 22 607 24 607 31 L607 591 C607 598 618 603 647 606 L690 610 L693 625 L441 625 L444 610 L482 607 C523 603 529 601 529 594 L529 328 L194 328 L194 591 C194 598 204 603 233 606 L279 610 L282 625 L30 625 L33 610 L68 607 C111 603 115 601 115 594 L115 34 C115 27 104 22 75 19 L32 15 Z " />
<glyph glyph-name="I" unicode="I" horiz-adv-x="329" d="M37 15 L34 0 L294 0 L291 15 L251 18 C210 22 204 24 204 31 L204 591 C204 598 213 603 244 606 L292 610 L295 625 L35 625 L38 610 L79 607 C120 603 125 601 125 594 L125 34 C125 27 115 22 86 19 L37 15 Z " />
<glyph glyph-name="J" unicode="J" horiz-adv-x="325" d="M34 -121 C132 -121 214 3 214 78 L214 591 C214 598 225 603 254 606 L301 610 L304 625 L44 625 L47 610 L89 607 C132 604 136 601 136 594 L136 86 C136 -46 102 -100 46 -100 C67 -66 49 -16 4 -16 C-27 -16 -46 -37 -46 -64 C-46 -97 -13 -121 34 -121 L34 -121 Z " />
<glyph glyph-name="K" unicode="K" horiz-adv-x="650" d="M32 15 L29 0 L284 0 L281 15 L240 18 C199 22 194 24 194 31 L194 247 L287 340 L450 81 C474 40 475 21 440 18 L408 15 L405 0 L647 0 L644 15 L616 17 C581 22 577 23 542 79 L339 392 L406 460 C543 599 541 603 600 608 L622 610 L625 625 L386 625 L388 610 L432 607 C501 602 503 586 379 462 L194 273 L194 591 C194 598 204 603 233 606 L282 610 L285 625 L30 625 L33 610 L69 607 C111 604 115 600 115 594 L115 34 C115 27 107 22 76 19 L32 15 Z " />
<glyph glyph-name="L" unicode="L" horiz-adv-x="547" d="M32 15 L29 0 L484 0 L518 195 L500 195 L487 149 C455 68 429 18 283 18 L194 21 L194 591 C194 598 204 603 233 606 L296 610 L299 625 L30 625 L33 610 L70 607 C111 603 115 601 115 594 L115 34 C115 27 106 22 77 19 L32 15 Z " />
<glyph glyph-name="M" unicode="M" horiz-adv-x="822" d="M21 15 L18 0 L246 0 L243 15 L210 18 C157 21 137 32 140 71 L152 579 C155 574 164 565 168 556 L377 6 L393 6 L619 579 L622 579 L634 61 C635 32 628 22 601 19 L547 15 L544 0 L800 0 L797 15 L756 18 C717 21 712 28 711 59 L700 590 C701 597 708 604 735 607 L793 610 L796 625 L615 625 L417 116 L415 116 L221 625 L37 625 L40 610 L82 606 C109 603 126 594 133 580 L118 72 C115 31 102 21 59 18 L21 15 Z " />
<glyph glyph-name="N" unicode="N" horiz-adv-x="697" d="M143 557 L572 -5 L591 -5 L592 552 C592 593 612 603 649 607 L683 610 L686 625 L470 625 L473 610 L507 607 C556 600 572 593 572 554 L573 121 L571 121 L188 626 L20 626 L23 611 L51 607 C94 599 112 578 123 558 L122 74 C122 31 101 22 65 18 L30 15 L27 0 L244 0 L241 15 L207 18 C158 23 142 33 142 72 L141 557 L143 557 Z " />
<glyph glyph-name="O" unicode="O" horiz-adv-x="721" d="M363 4 C224 4 119 126 119 313 C119 504 218 622 358 622 C497 622 602 497 602 310 C602 120 504 4 363 4 L363 4 Z M359 -14 C540 -14 689 139 689 313 C689 505 548 639 362 639 C182 639 33 483 33 310 C33 118 171 -14 359 -14 L359 -14 Z " />
<glyph glyph-name="P" unicode="P" horiz-adv-x="543" d="M280 306 C241 306 217 310 194 317 L194 607 L265 607 C385 610 434 553 434 456 C434 360 377 306 280 306 L280 306 Z M22 15 L19 0 L301 0 L298 15 L240 18 C199 21 194 24 194 31 L194 295 C217 292 250 289 281 289 C417 289 518 361 518 470 C518 565 442 625 285 625 L20 625 L23 610 L69 607 C110 603 115 601 115 594 L115 34 C115 27 104 22 75 19 L22 15 Z " />
<glyph glyph-name="Q" unicode="Q" horiz-adv-x="721" d="M363 4 C224 4 119 126 119 313 C119 503 218 622 358 622 C497 622 602 497 602 310 C602 120 504 4 363 4 L363 4 Z M620 -179 C655 -179 712 -171 739 -163 C739 -160 739 -158 738 -156 C737 -154 737 -152 737 -149 C597 -165 512 -146 445 -2 C585 38 689 167 689 313 C689 505 548 639 362 639 C182 639 33 483 33 310 C33 121 170 -11 354 -14 C410 -151 512 -179 620 -179 L620 -179 Z " />
<glyph glyph-name="R" unicode="R" horiz-adv-x="612" d="M285 318 C262 318 215 324 194 332 L194 605 C204 605 213 605 221 606 C236 607 248 607 249 607 C368 612 427 555 427 463 C427 372 372 321 285 318 L285 318 Z M22 15 L19 0 L289 0 L286 15 L240 18 C219 21 194 24 194 31 L194 313 C212 305 258 302 276 299 L442 30 L459 0 L615 0 L611 15 L588 18 C551 21 535 31 500 82 L356 303 C447 324 511 387 511 467 C511 567 432 625 277 625 L20 625 L23 610 L68 607 C111 603 115 601 115 594 L115 34 C115 27 94 22 75 19 L22 15 Z " />
<glyph glyph-name="S" unicode="S" horiz-adv-x="488" d="M233 -14 C364 -14 455 78 455 178 C455 285 375 333 272 367 C187 399 124 428 124 506 C124 570 172 621 251 621 C294 621 329 608 357 589 L411 467 L426 467 L420 632 L376 620 C345 631 306 639 255 639 C134 639 62 560 62 469 C62 371 138 328 231 296 C331 262 387 224 387 142 C387 64 329 4 238 4 C170 4 115 31 82 94 L55 170 L39 170 L50 18 C103 -1 173 -15 233 -14 L233 -14 Z " />
<glyph glyph-name="T" unicode="T" horiz-adv-x="625" d="M177 15 L174 0 L451 0 L448 15 L398 18 C357 22 352 24 352 31 L352 608 L399 608 C497 605 533 573 565 494 L575 452 L591 452 L570 625 L63 625 L29 452 L47 452 L60 495 C88 555 130 605 226 608 L273 608 L273 34 C273 27 264 22 233 19 L177 15 Z " />
<glyph glyph-name="U" unicode="U" horiz-adv-x="679" d="M350 -14 C506 -14 580 76 580 235 L581 552 C581 593 600 603 637 607 L672 611 L675 626 L454 626 L457 611 L491 607 C540 603 561 593 561 554 C562 495 562 443 562 396 L562 237 C562 96 499 23 379 23 C254 23 187 81 187 226 L187 591 C187 598 198 604 227 607 L279 611 L282 626 L14 626 L17 611 L62 607 C103 603 109 601 109 594 L109 216 C109 51 186 -14 350 -14 L350 -14 Z " />
<glyph glyph-name="V" unicode="V" horiz-adv-x="623" d="M98 535 L302 -11 L329 -11 L497 456 C545 591 557 602 603 607 L629 611 L632 626 L416 626 L419 611 L448 608 C521 600 522 587 487 485 L345 87 L342 87 L172 550 C155 598 165 607 201 608 L245 611 L248 626 L-9 626 L-6 611 L33 607 C71 604 77 595 98 535 L98 535 Z " />
<glyph glyph-name="W" unicode="W" horiz-adv-x="967" d="M99 535 L294 -11 L318 -11 L490 440 L491 440 L655 -11 L678 -11 L840 456 C888 590 892 599 941 607 L965 610 L968 625 L752 625 L755 610 L787 606 C858 598 863 582 826 481 L694 92 L692 92 L528 550 C513 597 522 605 557 608 L598 610 L601 625 L346 625 L349 610 L387 607 C427 604 434 591 455 535 L480 466 L337 90 L335 90 L175 550 C158 598 171 607 204 608 L245 610 L248 625 L-8 625 L-5 610 L33 607 C73 604 78 593 99 535 L99 535 Z " />
<glyph glyph-name="X" unicode="X" horiz-adv-x="627" d="M-2 15 L-5 0 L224 0 L221 15 L186 19 C131 25 123 39 174 119 L232 205 C262 248 290 291 290 290 L291 290 L434 74 C461 35 458 20 419 17 L376 15 L373 0 L628 0 L625 15 L590 18 C558 21 551 34 527 71 L340 347 L451 508 C506 590 526 605 574 608 L602 610 L605 625 L375 625 L379 610 L415 607 C467 599 481 589 428 510 L329 362 L328 362 L216 531 C177 592 179 606 218 609 L262 611 L264 625 L8 625 L12 610 L48 607 C79 604 91 586 124 534 L279 306 L151 121 C92 38 77 22 25 17 L-2 15 Z " />
<glyph glyph-name="Y" unicode="Y" horiz-adv-x="607" d="M168 15 L165 0 L443 0 L440 15 L391 18 C348 22 343 24 343 31 L343 288 L466 506 C513 593 529 603 571 608 L599 610 L602 625 L387 625 L390 610 L422 608 C482 600 484 582 441 502 L333 306 L330 306 L195 542 C167 590 167 605 210 608 L248 610 L251 625 L-5 625 L-2 610 L32 607 C68 604 82 589 105 548 L265 275 L265 34 C265 27 254 22 225 19 L168 15 Z " />
<glyph glyph-name="Z" unicode="Z" horiz-adv-x="562" d="M32 12 L32 0 L507 0 L536 198 L517 198 L505 157 C473 69 444 17 284 17 L127 18 L127 21 L522 612 L522 625 L65 625 L51 445 L67 445 L76 482 C102 558 137 608 281 608 L429 608 L429 605 L32 12 Z " />
<glyph glyph-name="bracketleft" unicode="&#x5b;" horiz-adv-x="325" d="M66 633 L66 -238 L312 -238 L312 -219 L88 -219 L88 614 L312 614 L312 633 L66 633 Z " />
<glyph glyph-name="backslash" unicode="&#x5c;" horiz-adv-x="246" d="M-1 640 L210 -236 L231 -236 L20 640 L-1 640 Z " />
<glyph glyph-name="bracketright" unicode="&#x5d;" horiz-adv-x="325" d="M13 -219 L13 -238 L259 -238 L259 633 L13 633 L13 614 L236 614 L236 -219 L13 -219 Z " />
<glyph glyph-name="asciicircum" unicode="&#x5e;" horiz-adv-x="379" d="M183 679 L55 489 L66 489 L189 606 L191 606 L313 489 L324 489 L196 679 L183 679 Z " />
<glyph glyph-name="underscore" unicode="&#x5f;" horiz-adv-x="453" d="M14 1 L11 -35 L442 -35 L439 1 L14 1 Z " />
<glyph glyph-name="grave" unicode="&#x60;" horiz-adv-x="379" d="M46 682 L225 497 L234 497 L129 682 L46 682 Z " />
<glyph glyph-name="a" unicode="a" horiz-adv-x="412" d="M171 34 C131 34 100 61 100 108 C100 161 131 201 271 236 L266 79 C235 51 207 34 171 34 L171 34 Z M329 -12 C366 -12 396 24 417 51 L409 60 C393 45 377 32 362 32 C342 32 331 42 332 73 L342 286 C347 409 306 444 215 444 C137 444 26 382 26 333 C26 309 45 294 70 294 C97 294 114 313 114 334 C114 359 91 375 91 382 C91 393 134 416 174 416 C232 416 276 387 273 286 L272 252 C88 207 30 161 30 89 C30 34 77 -11 137 -11 C185 -11 227 22 264 61 L266 60 C269 13 294 -12 329 -12 L329 -12 Z " />
<glyph glyph-name="b" unicode="b" horiz-adv-x="483" d="M249 6 C196 6 150 42 123 86 L123 332 C154 364 191 391 242 391 C326 391 382 310 382 204 C382 90 330 6 249 6 L249 6 Z M55 585 L55 -20 L63 -20 L109 18 L111 18 C142 2 191 -14 238 -14 C350 -14 459 82 459 228 C459 352 380 439 280 439 C216 439 165 401 126 356 L123 358 L123 681 L-14 648 L-15 637 L24 629 C49 624 55 616 55 585 L55 585 Z " />
<glyph glyph-name="c" unicode="c" horiz-adv-x="415" d="M223 -13 C303 -13 360 33 401 109 L389 115 C353 59 313 39 256 39 C165 39 98 119 98 235 C98 348 165 427 246 427 C281 427 312 407 316 395 C316 388 302 382 302 359 C297 328 318 304 347 304 C370 304 392 323 392 352 C392 405 331 444 249 444 C119 444 24 338 24 204 C24 81 110 -13 223 -13 L223 -13 Z " />
<glyph glyph-name="d" unicode="d" horiz-adv-x="496" d="M359 67 L359 -16 L496 9 L497 20 L447 28 C431 31 427 37 427 56 L427 681 L282 652 L280 641 L328 633 C355 630 359 621 359 590 L359 415 L357 415 C326 430 293 439 250 439 C134 439 24 348 24 201 C24 75 103 -13 204 -13 C268 -13 317 24 356 68 L359 67 Z M243 34 C157 34 101 118 101 225 C101 337 152 420 235 420 C287 420 334 384 359 340 L359 91 C328 60 295 34 243 34 L243 34 Z " />
<glyph glyph-name="e" unicode="e" horiz-adv-x="426" d="M320 298 L104 297 C120 370 176 427 230 427 C292 427 320 367 320 298 L320 298 Z M224 -13 C304 -13 360 33 403 109 L392 115 C355 59 313 39 256 39 C165 39 98 118 98 234 C98 249 99 270 102 282 L394 280 C395 289 396 297 396 306 C396 383 339 444 240 444 C114 444 24 336 24 204 C24 81 109 -13 224 -13 L224 -13 Z " />
<glyph glyph-name="f" unicode="f" horiz-adv-x="286" d="M25 15 L22 0 L243 0 L240 15 L195 16 C159 19 156 21 156 29 L156 390 L262 390 L274 429 L156 429 L156 469 C156 565 173 629 228 648 L244 646 L246 640 C253 607 276 583 303 583 C328 583 346 601 346 624 C346 651 320 673 277 673 C188 673 98 598 87 455 L85 429 L22 429 L10 392 L87 390 L87 30 C87 19 77 19 52 16 L25 15 Z " />
<glyph glyph-name="g" unicode="g" horiz-adv-x="446" d="M206 160 C150 160 111 215 111 299 C111 375 150 428 206 428 C273 428 304 372 304 288 C304 209 265 160 206 160 L206 160 Z M218 -226 C131 -226 66 -183 66 -118 C66 -70 110 -31 141 -18 C189 -15 222 -12 254 -13 C342 -16 376 -50 376 -103 C376 -171 304 -226 218 -226 L218 -226 Z M175 -249 C322 -249 425 -168 425 -60 C425 8 371 54 278 54 C248 54 191 51 165 51 C113 51 87 66 87 95 C87 123 117 144 148 151 C159 148 183 145 203 145 C299 145 374 211 374 295 C374 332 358 365 335 386 L336 390 L433 378 L439 425 L316 409 C287 429 250 443 207 443 C113 443 39 376 39 288 C39 224 81 178 130 159 C129 158 129 157 129 157 C80 143 24 106 24 58 C24 19 64 -6 121 -13 L121 -15 C72 -36 9 -79 9 -138 C9 -206 72 -249 175 -249 L175 -249 Z " />
<glyph glyph-name="h" unicode="h" horiz-adv-x="495" d="M12 15 L9 0 L212 0 L209 15 L183 16 C146 19 141 21 141 29 L141 211 L141 339 C172 367 214 391 262 391 C321 391 352 363 352 291 L352 31 C352 23 348 19 317 16 L290 15 L287 0 L490 0 L487 15 L463 16 C422 19 421 23 421 30 L421 314 C421 358 410 391 388 414 C367 433 341 443 310 443 C244 443 187 394 143 359 L141 360 L141 680 L5 647 L4 637 L41 629 C68 624 72 615 72 583 L72 31 C72 20 62 19 37 16 L12 15 Z " />
<glyph glyph-name="i" unicode="i" horiz-adv-x="232" d="M108 533 C141 533 157 561 157 584 C157 607 143 635 108 635 C73 635 58 606 58 583 C58 562 73 533 108 533 L108 533 Z M20 15 L17 0 L221 0 L218 15 L193 16 C157 19 152 21 152 29 L152 442 L17 408 L15 398 L46 393 C76 387 83 377 83 324 L83 31 C83 20 73 19 48 16 L20 15 Z " />
<glyph glyph-name="j" unicode="j" horiz-adv-x="218" d="M103 533 C136 533 152 561 152 584 C152 607 138 635 103 635 C68 635 53 606 53 583 C53 562 68 533 103 533 L103 533 Z M-9 -253 C71 -253 144 -148 147 -31 L147 442 L12 408 L10 398 L41 393 C72 388 78 377 78 324 L78 -89 C78 -168 64 -215 27 -224 C18 -184 -5 -159 -34 -159 C-57 -159 -78 -176 -78 -201 C-78 -232 -52 -253 -9 -253 L-9 -253 Z " />
<glyph glyph-name="k" unicode="k" horiz-adv-x="464" d="M12 15 L9 0 L210 0 L207 15 L182 16 C146 19 141 21 141 29 L141 181 L188 226 L308 33 L327 0 L460 0 L457 15 L437 17 C405 20 395 29 371 69 L238 274 L245 281 C249 285 255 290 260 295 C267 301 274 308 283 315 C350 382 372 409 409 412 L434 415 L437 429 L244 429 L246 415 L268 413 C297 411 311 403 311 389 C311 373 284 340 249 308 L141 203 L141 680 L5 647 L4 637 L41 629 C68 624 72 615 72 583 L72 31 C72 20 62 19 37 16 L12 15 Z " />
<glyph glyph-name="l" unicode="l" horiz-adv-x="229" d="M17 15 L15 0 L217 0 L214 15 L189 16 C152 19 148 21 148 29 L148 680 L10 647 L9 637 L47 629 C73 624 79 616 79 568 L79 31 C79 20 71 19 44 16 L17 15 Z " />
<glyph glyph-name="m" unicode="m" horiz-adv-x="756" d="M21 15 L18 0 L222 0 L220 15 L193 16 C157 19 151 21 151 29 L151 213 L151 343 C180 368 218 391 262 391 C318 391 347 363 347 292 L347 31 C347 23 342 19 313 16 L287 15 L284 0 L486 0 L483 15 L458 16 C418 21 416 21 416 30 L416 313 C416 314 417 337 417 340 C436 367 481 391 525 391 C584 391 612 363 612 292 L612 31 C612 23 606 19 577 16 L551 15 L548 0 L749 0 L746 15 L723 16 C683 21 681 21 681 30 L681 312 C681 355 670 390 649 413 C628 434 602 444 569 444 C505 444 452 397 412 357 L411 358 C407 381 396 401 384 414 C365 433 338 444 305 444 C242 444 189 397 152 360 L149 361 L152 442 L16 408 L15 398 L46 393 C76 387 83 378 83 323 L83 31 C83 20 74 19 47 16 L21 15 Z " />
<glyph glyph-name="n" unicode="n" horiz-adv-x="506" d="M21 15 L18 0 L222 0 L219 15 L193 16 C157 19 151 21 151 29 L151 211 L151 339 C183 367 225 391 272 391 C332 391 363 363 363 291 L363 31 C363 23 359 19 328 16 L302 15 L299 0 L501 0 L498 15 L473 16 C433 20 431 23 431 30 L431 313 C431 358 420 392 398 414 C379 434 351 443 320 443 C255 443 195 395 153 358 L150 359 L152 442 L16 408 L15 398 L47 393 C76 388 83 377 83 324 L83 31 C83 20 74 19 47 16 L21 15 Z " />
<glyph glyph-name="o" unicode="o" horiz-adv-x="495" d="M250 3 C211 3 182 17 161 40 C122 79 104 148 104 228 C104 335 160 427 246 427 C285 427 313 411 336 388 C375 349 391 281 391 205 C391 95 333 3 250 3 L250 3 Z M247 -14 C375 -14 471 88 471 220 C471 348 378 444 250 444 C122 444 24 342 24 213 C24 85 118 -14 247 -14 L247 -14 Z " />
<glyph glyph-name="p" unicode="p" horiz-adv-x="496" d="M262 6 C209 6 164 42 137 83 L137 332 C166 364 204 391 255 391 C340 391 395 310 395 204 C395 90 345 6 262 6 L262 6 Z M6 -236 L3 -251 L224 -251 L221 -236 L178 -235 C142 -232 137 -230 137 -223 L137 11 L139 11 C167 -2 207 -14 251 -14 C364 -14 472 82 472 228 C472 352 395 439 293 439 C229 439 179 401 140 356 L137 358 L138 442 L2 408 L1 398 L33 393 C62 388 69 378 69 325 L69 -221 C69 -232 58 -232 33 -235 L6 -236 Z " />
<glyph glyph-name="q" unicode="q" horiz-adv-x="489" d="M243 34 C157 34 101 119 101 227 C101 338 152 420 235 420 C287 420 334 383 359 338 L359 91 C328 60 295 34 243 34 L243 34 Z M276 -236 L273 -251 L494 -251 L491 -236 L464 -235 C437 -232 427 -232 427 -221 L427 448 L420 448 L376 406 L374 406 C342 425 297 439 250 439 C134 439 24 348 24 201 C24 75 103 -13 204 -13 C268 -13 317 24 356 68 L359 67 L359 -222 C359 -230 354 -232 318 -235 L276 -236 Z " />
<glyph glyph-name="r" unicode="r" horiz-adv-x="351" d="M21 15 L18 0 L234 0 L231 15 L190 16 C155 19 151 21 151 29 L151 252 C178 337 207 384 247 396 C251 361 274 345 298 345 C327 345 344 369 344 394 C344 421 322 444 287 444 C230 444 189 390 152 286 L150 286 L152 442 L17 408 L16 398 L47 393 C76 388 83 377 83 324 L83 31 C83 20 74 19 47 16 L21 15 Z " />
<glyph glyph-name="s" unicode="s" horiz-adv-x="363" d="M167 -14 C271 -14 333 52 333 124 C333 208 269 235 202 259 C140 281 97 298 97 352 C97 397 128 427 183 427 C214 427 239 414 256 401 L297 317 L314 317 L308 437 L276 427 C249 438 221 444 186 444 C102 444 41 390 41 319 C41 241 103 214 163 192 C230 171 274 145 274 90 C274 39 233 3 174 3 C131 3 93 28 68 72 L47 130 L30 130 L39 9 C76 -6 118 -14 167 -14 L167 -14 Z " />
<glyph glyph-name="t" unicode="t" horiz-adv-x="316" d="M179 -14 C228 -14 270 20 307 56 L301 66 C277 47 251 31 216 31 C173 31 147 53 148 101 C149 102 150 174 152 246 C153 288 154 336 155 391 L291 391 L303 429 L155 429 L156 517 L125 519 L74 437 L13 414 L7 391 L85 389 L80 91 C79 14 123 -14 179 -14 L179 -14 Z " />
<glyph glyph-name="u" unicode="u" horiz-adv-x="484" d="M349 70 L348 -16 L485 14 L486 25 L437 33 C420 36 417 41 417 60 L417 430 L276 430 L279 416 L305 413 C340 410 347 406 347 375 L347 214 L347 89 C316 62 278 38 230 38 C170 38 138 67 138 139 L140 430 L0 430 L3 416 L27 413 C69 410 70 408 70 400 L70 117 C70 72 80 39 101 16 C123 -4 150 -14 182 -14 C248 -14 304 33 347 70 L349 70 Z " />
<glyph glyph-name="v" unicode="v" horiz-adv-x="455" d="M67 362 L216 -9 L238 -9 L363 313 C397 397 401 410 438 413 L457 415 L460 429 L290 429 L293 415 L316 412 C369 409 374 395 345 321 L255 84 L142 369 C130 400 135 410 166 413 L191 415 L193 429 L-9 429 L-6 415 L18 412 C46 409 48 403 67 362 L67 362 Z " />
<glyph glyph-name="w" unicode="w" horiz-adv-x="702" d="M69 354 L204 -9 L226 -9 L352 295 L478 -9 L501 -9 L610 311 C639 396 645 410 684 413 L701 415 L704 429 L535 429 L538 415 L559 412 C612 407 617 391 592 317 L513 81 L396 372 C385 400 391 410 422 413 L445 415 L448 429 L247 429 L250 415 L272 413 C302 410 309 403 324 365 L342 318 L245 83 L140 372 C128 403 136 410 168 413 L191 415 L194 429 L-8 429 L-6 415 L18 413 C47 410 50 403 69 354 L69 354 Z " />
<glyph glyph-name="x" unicode="x" horiz-adv-x="453" d="M2 14 L-1 0 L169 0 L166 14 L135 17 C104 20 104 38 129 74 L207 188 L208 188 L293 65 C313 36 310 21 285 18 L261 14 L258 0 L458 0 L455 15 L435 17 C412 20 401 34 374 69 L252 241 L326 341 C363 394 383 409 410 412 L437 415 L440 429 L271 429 L274 415 L302 412 C333 409 335 390 310 354 L242 254 L241 254 L163 364 C142 396 144 409 171 412 L196 415 L199 429 L-1 429 L2 415 L22 413 C46 410 59 396 84 360 L197 200 L113 86 C76 35 57 22 30 18 L2 14 Z " />
<glyph glyph-name="y" unicode="y" horiz-adv-x="448" d="M87 -258 C147 -258 178 -211 209 -115 L246 3 L362 313 C394 397 397 410 434 413 L455 415 L458 429 L287 429 L290 415 L313 412 C365 407 372 396 345 323 L259 86 L142 369 C130 400 135 410 166 413 L189 415 L191 429 L-10 429 L-7 415 L17 412 C45 409 47 403 66 362 L225 -8 L225 -9 L196 -98 C173 -167 157 -203 126 -211 C119 -184 102 -165 74 -165 C47 -165 28 -184 28 -211 C28 -238 54 -258 87 -258 L87 -258 Z " />
<glyph glyph-name="z" unicode="z" horiz-adv-x="418" d="M21 12 L21 0 L361 0 L396 151 L381 151 L360 108 C325 48 292 16 181 16 L103 17 L380 417 L380 429 L45 429 L43 278 L59 278 L70 319 C94 385 116 413 227 413 L297 413 L21 12 Z " />
<glyph glyph-name="braceleft" unicode="&#x7b;" horiz-adv-x="304" d="M286 -256 L288 -243 C189 -231 152 -197 152 -137 C152 -70 195 -7 195 73 C195 141 130 184 42 196 L42 200 C130 211 195 255 195 322 C195 404 152 464 152 534 C152 594 189 627 288 639 L286 652 C172 647 94 592 94 503 C94 418 135 359 135 291 C135 231 65 214 -6 209 L-11 198 L-6 187 C78 182 135 163 135 105 C135 37 94 -21 94 -106 C94 -196 172 -251 286 -256 L286 -256 Z " />
<glyph glyph-name="bar" unicode="&#x7c;" horiz-adv-x="190" d="M85 648 L85 -229 L105 -229 L105 648 L85 648 Z " />
<glyph glyph-name="braceright" unicode="&#x7d;" horiz-adv-x="304" d="M5 -243 L6 -256 C121 -251 199 -196 199 -106 C199 -21 157 37 157 105 C157 163 214 182 298 187 L303 198 L298 209 C227 214 157 231 157 291 C157 359 199 418 199 503 C199 592 121 647 6 652 L5 639 C104 627 140 594 140 534 C140 464 98 404 98 322 C98 256 163 211 250 200 L250 196 C163 185 98 140 98 73 C98 -7 140 -70 140 -137 C140 -197 104 -231 5 -243 L5 -243 Z " />
<glyph glyph-name="asciitilde" unicode="&#x7e;" horiz-adv-x="379" d="M262 155 C307 155 328 187 337 258 L326 258 C317 211 300 202 277 202 C240 202 171 265 118 265 C73 265 51 235 42 163 L54 163 C62 211 79 219 103 219 C141 219 206 155 262 155 L262 155 Z " />
<glyph glyph-name="nbspace" unicode="&#xa0;" horiz-adv-x="139" d="" />
<glyph glyph-name="exclamdown" unicode="&#xa1;" horiz-adv-x="248" d="M124 531 C155 531 178 555 178 582 C178 610 155 635 124 635 C93 635 70 610 70 582 C70 555 93 531 124 531 L124 531 Z M120 -19 L129 -19 C166 -19 169 7 166 30 L130 438 C129 443 119 443 118 438 L83 30 C80 7 80 -19 120 -19 L120 -19 Z " />
<glyph glyph-name="cent" unicode="&#xa2;" horiz-adv-x="416" d="M298 413 L200 50 C140 77 98 144 98 235 C98 351 165 427 245 427 C268 427 286 421 298 413 L298 413 Z M185 -9 L144 -160 L161 -160 L201 -12 C209 -13 216 -14 224 -14 C304 -14 358 33 401 109 L390 115 C354 59 314 38 257 38 C242 38 229 41 216 44 L301 358 C305 333 322 317 346 317 C367 317 388 335 388 360 C388 392 363 418 320 433 L369 613 L352 613 C343 581 335 552 328 526 C316 483 305 437 304 438 C288 442 270 444 249 444 C118 444 23 339 23 207 C23 101 90 9 185 -9 L185 -9 Z " />
<glyph glyph-name="sterling" unicode="&#xa3;" horiz-adv-x="498" d="M158 57 C135 22 104 0 71 0 C40 0 18 15 18 42 C18 70 40 87 73 87 C100 87 127 74 158 57 L158 57 Z M54 283 L163 283 C174 236 186 194 186 151 C186 132 183 113 176 94 C147 103 120 109 95 109 C34 109 4 81 4 42 C4 7 31 -14 71 -14 C110 -14 146 11 175 47 C223 19 277 -14 344 -14 C421 -14 474 59 477 159 L465 161 C452 72 422 46 366 46 C315 46 257 69 201 86 C225 129 239 177 239 218 C239 241 238 262 235 283 L365 283 L362 301 L233 301 C226 357 217 406 217 453 C217 557 275 610 339 610 C366 610 386 600 395 592 C379 559 392 516 431 516 C455 516 475 537 475 560 C475 604 433 631 369 631 C235 631 148 519 148 388 C148 357 152 329 159 301 L57 301 L54 283 Z " />
<glyph glyph-name="currency" unicode="&#xa4;" horiz-adv-x="488" d="M296 -14 C383 -14 439 39 482 116 L471 123 C436 65 388 36 325 36 C241 36 170 104 146 220 L345 220 L342 238 L142 238 C138 264 136 289 136 314 C136 325 137 337 137 348 L345 348 L342 367 L139 367 C152 511 227 614 322 614 C357 614 377 598 388 585 C372 558 380 506 426 506 C450 506 470 526 470 550 C470 598 414 632 331 632 C205 632 97 527 70 367 L8 367 L5 348 L67 348 C64 332 63 313 63 294 C63 277 64 258 66 238 L8 238 L5 220 L69 220 C93 77 186 -14 296 -14 L296 -14 Z " />
<glyph glyph-name="yen" unicode="&#xa5;" horiz-adv-x="600" d="M167 15 L164 0 L441 0 L438 15 L386 19 C347 23 341 26 341 33 L341 158 L528 158 L525 176 L341 176 L341 287 L526 287 L527 305 L347 305 C347 305 376 357 404 408 C421 438 440 472 461 510 C509 598 521 603 563 608 L590 610 L593 625 L378 625 L381 610 L413 608 C473 600 477 586 437 507 L333 315 L330 315 L199 542 C170 590 171 605 214 608 L252 610 L255 625 L1 625 L4 610 L38 607 C74 604 87 588 111 549 L255 305 L76 305 L77 287 L264 287 L264 176 L78 176 L75 158 L264 158 L264 35 C264 28 254 23 226 20 L167 15 Z " />
<glyph glyph-name="section" unicode="&#xa7;" horiz-adv-x="401" d="M286 160 C255 188 215 210 168 237 C109 269 64 303 64 356 C64 388 89 416 116 431 C144 403 187 382 232 355 C291 323 336 291 336 236 C336 204 313 177 286 160 L286 160 Z M176 -50 C261 -50 321 15 321 79 C321 106 312 130 294 151 C343 178 383 216 383 271 C383 342 316 383 249 420 C185 457 126 487 126 541 C126 581 156 623 206 623 C230 623 245 615 258 600 C247 568 258 529 294 529 C317 529 334 549 334 570 C334 609 290 640 222 640 C137 640 81 576 81 512 C81 485 90 461 107 440 C58 416 18 378 18 323 C18 251 85 208 151 171 C216 136 274 103 274 51 C274 11 244 -33 193 -33 C169 -33 146 -25 131 -10 C144 22 131 61 95 61 C72 61 57 41 57 20 C57 -19 108 -50 176 -50 L176 -50 Z " />
<glyph glyph-name="dieresis" unicode="&#xa8;" horiz-adv-x="379" d="M276 517 C308 517 323 544 323 565 C323 586 308 616 276 616 C244 616 228 586 228 565 C228 544 244 517 276 517 L276 517 Z M103 517 C136 517 151 544 151 565 C151 586 136 616 103 616 C71 616 56 586 56 565 C56 544 71 517 103 517 L103 517 Z " />
<glyph glyph-name="copyright" unicode="&#xa9;" horiz-adv-x="713" d="M367 118 C406 118 451 128 474 137 L496 139 L515 240 L505 240 L485 199 C458 156 428 131 371 131 C281 131 217 207 217 316 C217 416 275 492 365 492 C406 492 437 480 453 468 L495 383 L505 383 L501 498 L465 484 C442 495 407 505 367 505 C247 505 164 422 164 309 C164 196 247 118 367 118 L367 118 Z M357 2 C186 2 47 142 47 313 C47 484 186 624 357 624 C527 624 666 484 666 313 C666 142 527 2 357 2 L357 2 Z M357 -14 C538 -14 684 132 684 313 C684 493 538 641 357 641 C176 641 30 493 30 313 C30 132 176 -14 357 -14 L357 -14 Z " />
<glyph glyph-name="ordfeminine" unicode="&#xaa;" horiz-adv-x="315" d="M135 324 C100 324 81 346 81 379 C81 414 107 446 208 470 L205 359 C185 340 159 324 135 324 L135 324 Z M204 345 C207 306 224 286 255 286 C286 286 310 316 325 336 L322 342 C310 331 298 322 285 322 C268 322 259 334 260 359 L267 529 C270 605 233 636 170 636 C107 636 20 589 20 552 C20 532 35 518 55 518 C76 518 90 533 90 549 C90 566 74 582 74 586 C74 594 99 611 130 611 C172 611 210 589 210 517 L208 483 C73 452 21 410 21 359 C21 319 55 286 98 286 C133 286 171 310 204 345 L204 345 Z " />
<glyph glyph-name="guillemotleft" unicode="&#xab;" horiz-adv-x="427" d="M17 213 L220 61 L225 69 L94 222 L224 374 L219 382 L17 230 L17 213 Z M193 213 L399 47 L404 56 L268 222 L404 388 L399 396 L193 230 L193 213 Z " />
<glyph glyph-name="registered" unicode="&#xae;" horiz-adv-x="713" d="M349 318 C337 318 311 322 298 327 L298 483 L329 484 C400 488 436 457 436 402 C436 349 401 321 349 318 L349 318 Z M193 142 L191 130 L358 130 L356 142 L325 145 C313 146 298 150 298 154 L298 312 C309 309 336 305 347 304 L445 147 L454 130 L551 130 L548 142 L532 144 C509 147 500 149 480 180 L397 307 C450 319 488 357 488 404 C488 461 440 499 348 499 L191 499 L194 486 L223 483 C247 480 249 479 249 474 L249 156 C249 152 238 147 227 146 L193 142 Z M357 2 C186 2 47 142 47 313 C47 484 186 624 357 624 C527 624 666 484 666 313 C666 142 527 2 357 2 L357 2 Z M357 -14 C538 -14 684 132 684 313 C684 493 538 641 357 641 C176 641 30 493 30 313 C30 132 176 -14 357 -14 L357 -14 Z " />
<glyph glyph-name="macron" unicode="&#xaf;" horiz-adv-x="378" d="M68 556 L62 527 L312 527 L316 556 L68 556 Z " />
<glyph glyph-name="degree" unicode="&#xb0;" horiz-adv-x="322" d="M161 385 C89 385 46 437 46 504 C46 570 90 624 161 624 C232 624 278 570 278 504 C278 437 233 385 161 385 L161 385 Z M161 366 C246 366 298 429 298 504 C298 580 246 643 161 643 C76 643 24 580 24 504 C24 429 77 366 161 366 L161 366 Z " />
<glyph glyph-name="plusminus" unicode="&#xb1;" horiz-adv-x="328" d="M48 15 L45 0 L283 0 L280 15 L236 19 C200 22 197 25 197 33 L197 435 C197 445 209 450 234 451 L281 454 L284 469 L45 469 L48 454 L92 451 C128 448 132 444 132 437 L132 35 C132 26 119 20 94 19 L48 15 Z " />
<glyph glyph-name="acute" unicode="&#xb4;" horiz-adv-x="379" d="M250 682 L145 497 L155 497 L333 682 L250 682 Z " />
<glyph glyph-name="paragraph" unicode="&#xb6;" horiz-adv-x="437" d="M356 281 L356 -32 L377 -32 L377 625 L258 625 C109 625 30 565 30 452 C30 340 113 273 261 273 C289 273 329 276 356 281 L356 281 Z " />
<glyph glyph-name="periodcentered" unicode="&#xb7;" horiz-adv-x="197" d="M99 165 C131 165 153 190 153 219 C153 247 131 272 99 272 C67 272 43 247 43 219 C43 190 67 165 99 165 L99 165 Z " />
<glyph glyph-name="cedilla" unicode="&#xb8;" horiz-adv-x="379" d="M94 -249 L98 -258 C203 -247 292 -212 292 -141 C292 -86 231 -55 155 -66 L218 4 L198 4 L100 -106 L100 -116 C119 -111 140 -106 164 -106 C212 -106 245 -124 245 -160 C245 -207 189 -234 94 -249 L94 -249 Z " />
<glyph glyph-name="ordmasculine" unicode="&#xba;" horiz-adv-x="378" d="M191 299 C168 299 143 308 126 325 C97 353 83 407 83 468 C83 553 124 622 187 622 C212 622 235 613 254 593 C281 566 293 512 293 453 C293 370 253 299 191 299 L191 299 Z M189 285 C289 285 362 364 362 462 C362 558 291 636 189 636 C90 636 15 555 15 458 C15 362 88 285 189 285 L189 285 Z " />
<glyph glyph-name="guillemotright" unicode="&#xbb;" horiz-adv-x="430" d="M203 69 L208 61 L411 213 L411 230 L208 382 L203 374 L333 222 L203 69 Z M23 56 L28 47 L234 213 L234 230 L29 396 L24 388 L159 222 L23 56 Z " />
<glyph glyph-name="questiondown" unicode="&#xbf;" horiz-adv-x="315" d="M171 537 C202 537 225 560 225 587 C225 615 202 640 171 640 C139 640 118 615 118 587 C118 560 139 537 171 537 L171 537 Z M214 -14 C263 -14 282 2 282 25 C282 41 278 56 273 63 C257 59 232 54 204 54 C94 54 50 107 50 148 C50 180 80 195 147 223 C219 255 252 272 252 332 C252 368 206 422 174 446 L159 446 C187 419 212 390 212 359 C212 320 176 307 129 286 C60 254 31 238 31 165 C31 75 106 -14 214 -14 L214 -14 Z " />
<glyph glyph-name="Agrave" unicode="&#xc0;" horiz-adv-x="616" d="M133 127 L180 259 L377 259 L435 82 C450 35 440 21 405 18 L364 15 L361 0 L619 0 L616 15 L578 18 C540 21 534 33 513 91 L328 638 L317 638 C309 623 279 597 261 592 L269 563 L136 191 C80 35 70 26 20 18 L-5 15 L-8 0 L206 0 L203 15 L171 18 C103 26 100 37 133 127 L133 127 Z M283 544 L370 279 L186 279 C187 279 210 346 233 412 C246 451 262 495 280 544 L283 544 Z M147 850 L326 665 L335 665 L230 850 L147 850 Z " />
<glyph glyph-name="Aacute" unicode="&#xc1;" horiz-adv-x="616" d="M133 127 L180 259 L377 259 L435 82 C450 35 440 21 405 18 L364 15 L361 0 L619 0 L616 15 L578 18 C540 21 534 33 513 91 L328 638 L317 638 C309 623 279 597 261 592 L269 563 L136 191 C80 35 70 26 20 18 L-5 15 L-8 0 L206 0 L203 15 L171 18 C103 26 100 37 133 127 L133 127 Z M283 544 L370 279 L186 279 C187 279 210 346 233 412 C246 451 262 495 280 544 L283 544 Z M375 850 L270 665 L280 665 L458 850 L375 850 Z " />
<glyph glyph-name="Acircumflex" unicode="&#xc2;" horiz-adv-x="616" d="M133 127 L180 259 L377 259 L435 82 C450 35 440 21 405 18 L364 15 L361 0 L619 0 L616 15 L578 18 C540 21 534 33 513 91 L328 638 L317 638 C309 623 279 597 261 592 L269 563 L136 191 C80 35 70 26 20 18 L-5 15 L-8 0 L206 0 L203 15 L171 18 C103 26 100 37 133 127 L133 127 Z M283 544 L370 279 L186 279 C187 279 210 346 233 412 C246 451 262 495 280 544 L283 544 Z M306 847 L178 657 L189 657 L312 774 L314 774 L436 657 L447 657 L319 847 L306 847 Z " />
<glyph glyph-name="Atilde" unicode="&#xc3;" horiz-adv-x="616" d="M133 127 L180 259 L377 259 L435 82 C450 35 440 21 405 18 L364 15 L361 0 L619 0 L616 15 L578 18 C540 21 534 33 513 91 L328 638 L317 638 C309 623 279 597 261 592 L269 563 L136 191 C80 35 70 26 20 18 L-5 15 L-8 0 L206 0 L203 15 L171 18 C103 26 100 37 133 127 L133 127 Z M283 544 L370 279 L186 279 C187 279 210 346 233 412 C246 451 262 495 280 544 L283 544 Z M379 672 C424 672 445 704 454 775 L443 775 C434 728 417 719 394 719 C357 719 288 782 235 782 C190 782 168 752 159 680 L171 680 C179 728 196 736 220 736 C258 736 323 672 379 672 L379 672 Z " />
<glyph glyph-name="Adieresis" unicode="&#xc4;" horiz-adv-x="616" d="M133 127 L180 259 L377 259 L435 82 C450 35 440 21 405 18 L364 15 L361 0 L619 0 L616 15 L578 18 C540 21 534 33 513 91 L328 638 L317 638 C309 623 279 597 261 592 L269 563 L136 191 C80 35 70 26 20 18 L-5 15 L-8 0 L206 0 L203 15 L171 18 C103 26 100 37 133 127 L133 127 Z M283 544 L370 279 L186 279 C187 279 210 346 233 412 C246 451 262 495 280 544 L283 544 Z M393 682 C425 682 440 709 440 730 C440 751 425 781 393 781 C361 781 345 751 345 730 C345 709 361 682 393 682 L393 682 Z M220 682 C253 682 268 709 268 730 C268 751 253 781 220 781 C188 781 173 751 173 730 C173 709 188 682 220 682 L220 682 Z " />
<glyph glyph-name="Aring" unicode="&#xc5;" horiz-adv-x="616" d="M308 624 C261 624 235 658 235 699 C235 739 261 775 308 775 C353 775 381 739 381 699 C381 658 353 624 308 624 L308 624 Z M179 258 L377 258 L435 82 C450 35 440 21 405 18 L364 15 L361 0 L619 0 L616 15 L578 18 C540 21 534 33 513 91 L336 615 C375 626 397 660 397 700 C397 748 364 789 308 789 C252 789 219 748 219 700 C219 657 244 624 287 613 L136 191 C80 35 70 26 20 18 L-5 15 L-8 0 L206 0 L203 15 L171 18 C103 26 100 37 133 127 L179 258 Z M370 279 L186 279 L280 545 L283 545 L370 279 Z " />
<glyph glyph-name="AE" unicode="&#xc6;" horiz-adv-x="835" d="M389 279 L206 279 L385 596 L389 596 L389 279 Z M-50 15 L-53 0 L173 0 L170 14 L130 18 C72 26 77 48 128 140 L194 258 L389 258 L389 37 C389 30 379 24 351 21 L297 15 L294 0 L768 0 L802 184 L785 185 L774 146 C745 71 706 21 556 18 L466 21 L466 316 L519 315 C614 312 631 306 634 251 L637 223 L650 222 L670 424 L657 426 L647 396 C631 344 614 337 524 334 L466 333 L466 607 L564 607 C697 607 714 571 743 488 L753 447 L768 447 L755 625 L254 625 L257 609 L300 606 C357 602 362 592 351 572 L116 160 C50 41 24 24 -8 19 L-50 15 Z " />
<glyph glyph-name="Ccedilla" unicode="&#xc7;" horiz-adv-x="666" d="M371 -15 L290 -106 L290 -116 C309 -111 330 -106 354 -106 C402 -106 435 -124 435 -160 C435 -207 379 -234 284 -249 L288 -258 C393 -247 482 -212 482 -141 C482 -86 421 -55 345 -66 L391 -15 C455 -12 522 6 557 22 L593 23 L626 186 L609 186 L580 116 C531 46 480 4 381 4 C225 4 119 131 119 317 C119 488 217 622 379 622 C448 622 500 604 528 583 L593 438 L609 438 L603 627 L544 604 C508 621 449 640 382 640 C177 640 33 503 33 307 C33 112 176 -12 371 -15 L371 -15 Z " />
<glyph glyph-name="Egrave" unicode="&#xc8;" horiz-adv-x="577" d="M31 15 L28 0 L508 0 L542 184 L525 185 L513 146 C484 73 451 18 303 18 L194 21 L194 316 L258 315 C354 312 371 306 374 251 L376 223 L390 222 L410 424 L396 425 L386 396 C370 344 354 337 263 334 L194 333 L194 608 L295 608 C428 608 453 571 482 488 L492 447 L508 447 L495 625 L29 625 L32 610 L69 607 C110 603 115 601 115 594 L115 34 C115 27 101 22 74 19 L31 15 Z M143 850 L322 665 L331 665 L226 850 L143 850 Z " />
<glyph glyph-name="Eacute" unicode="&#xc9;" horiz-adv-x="577" d="M31 15 L28 0 L508 0 L542 184 L525 185 L513 146 C484 73 451 18 303 18 L194 21 L194 316 L258 315 C354 312 371 306 374 251 L376 223 L390 222 L410 424 L396 425 L386 396 C370 344 354 337 263 334 L194 333 L194 608 L295 608 C428 608 453 571 482 488 L492 447 L508 447 L495 625 L29 625 L32 610 L69 607 C110 603 115 601 115 594 L115 34 C115 27 101 22 74 19 L31 15 Z M365 850 L260 665 L270 665 L448 850 L365 850 Z " />
<glyph glyph-name="Ecircumflex" unicode="&#xca;" horiz-adv-x="577" d="M31 15 L28 0 L508 0 L542 184 L525 185 L513 146 C484 73 451 18 303 18 L194 21 L194 316 L258 315 C354 312 371 306 374 251 L376 223 L390 222 L410 424 L396 425 L386 396 C370 344 354 337 263 334 L194 333 L194 608 L295 608 C428 608 453 571 482 488 L492 447 L508 447 L495 625 L29 625 L32 610 L69 607 C110 603 115 601 115 594 L115 34 C115 27 101 22 74 19 L31 15 Z M281 847 L153 657 L164 657 L287 774 L289 774 L411 657 L422 657 L294 847 L281 847 Z " />
<glyph glyph-name="Edieresis" unicode="&#xcb;" horiz-adv-x="577" d="M31 15 L28 0 L508 0 L542 184 L525 185 L513 146 C484 73 451 18 303 18 L194 21 L194 316 L258 315 C354 312 371 306 374 251 L376 223 L390 222 L410 424 L396 425 L386 396 C370 344 354 337 263 334 L194 333 L194 608 L295 608 C428 608 453 571 482 488 L492 447 L508 447 L495 625 L29 625 L32 610 L69 607 C110 603 115 601 115 594 L115 34 C115 27 101 22 74 19 L31 15 Z M370 682 C402 682 417 709 417 730 C417 751 402 781 370 781 C338 781 322 751 322 730 C322 709 338 682 370 682 L370 682 Z M197 682 C230 682 245 709 245 730 C245 751 230 781 197 781 C165 781 150 751 150 730 C150 709 165 682 197 682 L197 682 Z " />
<glyph glyph-name="Igrave" unicode="&#xcc;" horiz-adv-x="329" d="M37 15 L34 0 L294 0 L291 15 L251 18 C210 22 204 24 204 31 L204 591 C204 598 213 603 244 606 L292 610 L295 625 L35 625 L38 610 L79 607 C120 603 125 601 125 594 L125 34 C125 27 115 22 86 19 L37 15 Z M12 850 L191 665 L200 665 L95 850 L12 850 Z " />
<glyph glyph-name="Iacute" unicode="&#xcd;" horiz-adv-x="329" d="M37 15 L34 0 L294 0 L291 15 L251 18 C210 22 204 24 204 31 L204 591 C204 598 213 603 244 606 L292 610 L295 625 L35 625 L38 610 L79 607 C120 603 125 601 125 594 L125 34 C125 27 115 22 86 19 L37 15 Z M234 850 L129 665 L139 665 L317 850 L234 850 Z " />
<glyph glyph-name="Icircumflex" unicode="&#xce;" horiz-adv-x="329" d="M37 15 L34 0 L294 0 L291 15 L251 18 C210 22 204 24 204 31 L204 591 C204 598 213 603 244 606 L292 610 L295 625 L35 625 L38 610 L79 607 C120 603 125 601 125 594 L125 34 C125 27 115 22 86 19 L37 15 Z M159 847 L31 657 L42 657 L165 774 L167 774 L289 657 L300 657 L172 847 L159 847 Z " />
<glyph glyph-name="Idieresis" unicode="&#xcf;" horiz-adv-x="329" d="M37 15 L34 0 L294 0 L291 15 L251 18 C210 22 204 24 204 31 L204 591 C204 598 213 603 244 606 L292 610 L295 625 L35 625 L38 610 L79 607 C120 603 125 601 125 594 L125 34 C125 27 115 22 86 19 L37 15 Z M253 683 C285 683 300 710 300 731 C300 752 285 782 253 782 C221 782 205 752 205 731 C205 710 221 683 253 683 L253 683 Z M80 683 C113 683 128 710 128 731 C128 752 113 782 80 782 C48 782 33 752 33 731 C33 710 48 683 80 683 L80 683 Z " />
<glyph glyph-name="Eth" unicode="&#xd0;" horiz-adv-x="666" d="M339 326 L193 326 L193 608 L251 608 C450 608 542 474 542 302 C542 153 451 21 271 18 L193 34 L193 306 L342 306 L339 326 Z M27 306 L115 306 L115 35 C115 28 105 23 77 20 L27 15 L24 0 L247 0 C491 0 626 140 626 326 C626 505 497 631 266 628 L25 625 L28 610 L70 606 C100 603 115 598 115 592 L115 326 L30 326 L27 306 Z " />
<glyph glyph-name="Ntilde" unicode="&#xd1;" horiz-adv-x="697" d="M143 557 L572 -5 L591 -5 L592 552 C592 593 612 603 649 607 L683 610 L686 625 L470 625 L473 610 L507 607 C556 600 572 593 572 554 L573 121 L571 121 L188 626 L20 626 L23 611 L51 607 C94 599 112 578 123 558 L122 74 C122 31 101 22 65 18 L30 15 L27 0 L244 0 L241 15 L207 18 C158 23 142 33 142 72 L141 557 L143 557 Z M434 672 C479 672 500 704 509 775 L498 775 C489 728 472 719 449 719 C412 719 343 782 290 782 C245 782 223 752 214 680 L226 680 C234 728 251 736 275 736 C313 736 378 672 434 672 L434 672 Z " />
<glyph glyph-name="Ograve" unicode="&#xd2;" horiz-adv-x="721" d="M363 4 C224 4 119 126 119 313 C119 504 218 622 358 622 C497 622 602 497 602 310 C602 120 504 4 363 4 L363 4 Z M359 -14 C540 -14 689 139 689 313 C689 505 548 639 362 639 C182 639 33 483 33 310 C33 118 171 -14 359 -14 L359 -14 Z M203 850 L382 665 L391 665 L286 850 L203 850 Z " />
<glyph glyph-name="Oacute" unicode="&#xd3;" horiz-adv-x="721" d="M363 4 C224 4 119 126 119 313 C119 504 218 622 358 622 C497 622 602 497 602 310 C602 120 504 4 363 4 L363 4 Z M359 -14 C540 -14 689 139 689 313 C689 505 548 639 362 639 C182 639 33 483 33 310 C33 118 171 -14 359 -14 L359 -14 Z M430 850 L325 665 L335 665 L513 850 L430 850 Z " />
<glyph glyph-name="Ocircumflex" unicode="&#xd4;" horiz-adv-x="721" d="M363 4 C224 4 119 126 119 313 C119 504 218 622 358 622 C497 622 602 497 602 310 C602 120 504 4 363 4 L363 4 Z M359 -14 C540 -14 689 139 689 313 C689 505 548 639 362 639 C182 639 33 483 33 310 C33 118 171 -14 359 -14 L359 -14 Z M355 847 L227 657 L238 657 L361 774 L363 774 L485 657 L496 657 L368 847 L355 847 Z " />
<glyph glyph-name="Otilde" unicode="&#xd5;" horiz-adv-x="721" d="M363 4 C224 4 119 126 119 313 C119 504 218 622 358 622 C497 622 602 497 602 310 C602 120 504 4 363 4 L363 4 Z M359 -14 C540 -14 689 139 689 313 C689 505 548 639 362 639 C182 639 33 483 33 310 C33 118 171 -14 359 -14 L359 -14 Z M435 672 C480 672 501 704 510 775 L499 775 C490 728 473 719 450 719 C413 719 344 782 291 782 C246 782 224 752 215 680 L227 680 C235 728 252 736 276 736 C314 736 379 672 435 672 L435 672 Z " />
<glyph glyph-name="Odieresis" unicode="&#xd6;" horiz-adv-x="721" d="M363 4 C224 4 119 126 119 313 C119 504 218 622 358 622 C497 622 602 497 602 310 C602 120 504 4 363 4 L363 4 Z M359 -14 C540 -14 689 139 689 313 C689 505 548 639 362 639 C182 639 33 483 33 310 C33 118 171 -14 359 -14 L359 -14 Z M449 682 C481 682 496 709 496 730 C496 751 481 781 449 781 C417 781 401 751 401 730 C401 709 417 682 449 682 L449 682 Z M276 682 C309 682 324 709 324 730 C324 751 309 781 276 781 C244 781 229 751 229 730 C229 709 244 682 276 682 L276 682 Z " />
<glyph glyph-name="Oslash" unicode="&#xd8;" horiz-adv-x="721" d="M210 66 C154 121 119 205 119 313 C119 502 218 621 358 621 C413 621 461 603 500 568 C501 568 428 443 355 317 C312 243 264 159 210 66 L210 66 Z M224 53 L514 555 C569 499 602 415 602 310 C602 120 504 4 363 4 C310 4 264 20 224 53 L224 53 Z M536 593 L592 689 L571 689 L553 659 C542 642 531 621 520 602 C473 627 420 639 362 639 C182 639 33 483 33 310 C33 182 93 82 189 29 L130 -73 L151 -73 L205 20 C252 -3 303 -14 359 -14 C540 -14 689 139 689 313 C689 438 629 537 536 593 L536 593 Z " />
<glyph glyph-name="Ugrave" unicode="&#xd9;" horiz-adv-x="679" d="M350 -14 C506 -14 580 76 580 235 L581 552 C581 593 600 603 637 607 L672 611 L675 626 L454 626 L457 611 L491 607 C540 603 561 593 561 554 C562 495 562 443 562 396 L562 237 C562 96 499 23 379 23 C254 23 187 81 187 226 L187 591 C187 598 198 604 227 607 L279 611 L282 626 L14 626 L17 611 L62 607 C103 603 109 601 109 594 L109 216 C109 51 186 -14 350 -14 L350 -14 Z M206 850 L385 665 L394 665 L289 850 L206 850 Z " />
<glyph glyph-name="Uacute" unicode="&#xda;" horiz-adv-x="679" d="M350 -14 C506 -14 580 76 580 235 L581 552 C581 593 600 603 637 607 L672 611 L675 626 L454 626 L457 611 L491 607 C540 603 561 593 561 554 C562 495 562 443 562 396 L562 237 C562 96 499 23 379 23 C254 23 187 81 187 226 L187 591 C187 598 198 604 227 607 L279 611 L282 626 L14 626 L17 611 L62 607 C103 603 109 601 109 594 L109 216 C109 51 186 -14 350 -14 L350 -14 Z M422 850 L317 665 L327 665 L505 850 L422 850 Z " />
<glyph glyph-name="Ucircumflex" unicode="&#xdb;" horiz-adv-x="679" d="M350 -14 C506 -14 580 76 580 235 L581 552 C581 593 600 603 637 607 L672 611 L675 626 L454 626 L457 611 L491 607 C540 603 561 593 561 554 C562 495 562 443 562 396 L562 237 C562 96 499 23 379 23 C254 23 187 81 187 226 L187 591 C187 598 198 604 227 607 L279 611 L282 626 L14 626 L17 611 L62 607 C103 603 109 601 109 594 L109 216 C109 51 186 -14 350 -14 L350 -14 Z M351 847 L223 657 L234 657 L357 774 L359 774 L481 657 L492 657 L364 847 L351 847 Z " />
<glyph glyph-name="Udieresis" unicode="&#xdc;" horiz-adv-x="679" d="M350 -14 C506 -14 580 76 580 235 L581 552 C581 593 600 603 637 607 L672 611 L675 626 L454 626 L457 611 L491 607 C540 603 561 593 561 554 C562 495 562 443 562 396 L562 237 C562 96 499 23 379 23 C254 23 187 81 187 226 L187 591 C187 598 198 604 227 607 L279 611 L282 626 L14 626 L17 611 L62 607 C103 603 109 601 109 594 L109 216 C109 51 186 -14 350 -14 L350 -14 Z M451 682 C483 682 498 709 498 730 C498 751 483 781 451 781 C419 781 403 751 403 730 C403 709 419 682 451 682 L451 682 Z M278 682 C311 682 326 709 326 730 C326 751 311 781 278 781 C246 781 231 751 231 730 C231 709 246 682 278 682 L278 682 Z " />
<glyph glyph-name="Yacute" unicode="&#xdd;" horiz-adv-x="607" d="M168 15 L165 0 L443 0 L440 15 L391 18 C348 22 343 24 343 31 L343 288 L466 506 C513 593 529 603 571 608 L599 610 L602 625 L387 625 L390 610 L422 608 C482 600 484 582 441 502 L333 306 L330 306 L195 542 C167 590 167 605 210 608 L248 610 L251 625 L-5 625 L-2 610 L32 607 C68 604 82 589 105 548 L265 275 L265 34 C265 27 254 22 225 19 L168 15 Z M392 851 L287 666 L297 666 L475 851 L392 851 Z " />
<glyph glyph-name="Thorn" unicode="&#xde;" horiz-adv-x="548" d="M281 168 C241 168 217 174 194 179 L194 476 C207 477 218 477 228 477 L260 477 C383 480 434 420 434 321 C434 225 378 168 281 168 L281 168 Z M22 15 L19 0 L301 0 L298 15 L240 18 C199 21 194 24 194 31 L194 157 C217 154 249 149 281 149 C417 149 518 225 518 333 C518 429 442 494 285 494 C272 495 259 495 247 495 L194 495 L194 591 C194 598 207 603 233 606 L286 610 L289 625 L20 625 L23 610 L69 607 C110 603 115 601 115 594 L115 34 C115 27 104 22 75 19 L22 15 Z " />
<glyph glyph-name="germandbls" unicode="&#xdf;" horiz-adv-x="498" d="M302 414 C369 433 423 473 423 545 C423 622 363 673 266 673 C166 673 99 591 87 456 L86 430 L22 427 L10 392 L87 389 L87 30 C87 19 77 18 53 17 L25 15 L22 1 L156 1 L156 493 C156 606 188 656 259 656 C316 656 356 605 356 547 C356 460 312 422 225 407 L225 399 C353 323 416 217 416 118 C416 50 381 4 326 4 C295 4 275 19 266 34 C318 37 318 117 262 117 C234 117 213 95 213 66 C213 21 261 -12 324 -12 C409 -12 478 71 478 167 C478 269 381 372 302 414 L302 414 Z " />
<glyph glyph-name="agrave" unicode="&#xe0;" horiz-adv-x="412" d="M171 34 C131 34 100 61 100 108 C100 161 131 201 271 236 L266 79 C235 51 207 34 171 34 L171 34 Z M329 -12 C366 -12 396 24 417 51 L409 60 C393 45 377 32 362 32 C342 32 331 42 332 73 L342 286 C347 409 306 444 215 444 C137 444 26 382 26 333 C26 309 45 294 70 294 C97 294 114 313 114 334 C114 359 91 375 91 382 C91 393 134 416 174 416 C232 416 276 387 273 286 L272 252 C88 207 30 161 30 89 C30 34 77 -11 137 -11 C185 -11 227 22 264 61 L266 60 C269 13 294 -12 329 -12 L329 -12 Z M54 682 L233 497 L242 497 L137 682 L54 682 Z " />
<glyph glyph-name="aacute" unicode="&#xe1;" horiz-adv-x="412" d="M171 34 C131 34 100 61 100 108 C100 161 131 201 271 236 L266 79 C235 51 207 34 171 34 L171 34 Z M329 -12 C366 -12 396 24 417 51 L409 60 C393 45 377 32 362 32 C342 32 331 42 332 73 L342 286 C347 409 306 444 215 444 C137 444 26 382 26 333 C26 309 45 294 70 294 C97 294 114 313 114 334 C114 359 91 375 91 382 C91 393 134 416 174 416 C232 416 276 387 273 286 L272 252 C88 207 30 161 30 89 C30 34 77 -11 137 -11 C185 -11 227 22 264 61 L266 60 C269 13 294 -12 329 -12 L329 -12 Z M270 682 L165 497 L175 497 L353 682 L270 682 Z " />
<glyph glyph-name="acircumflex" unicode="&#xe2;" horiz-adv-x="412" d="M171 34 C131 34 100 61 100 108 C100 161 131 201 271 236 L266 79 C235 51 207 34 171 34 L171 34 Z M329 -12 C366 -12 396 24 417 51 L409 60 C393 45 377 32 362 32 C342 32 331 42 332 73 L342 286 C347 409 306 444 215 444 C137 444 26 382 26 333 C26 309 45 294 70 294 C97 294 114 313 114 334 C114 359 91 375 91 382 C91 393 134 416 174 416 C232 416 276 387 273 286 L272 252 C88 207 30 161 30 89 C30 34 77 -11 137 -11 C185 -11 227 22 264 61 L266 60 C269 13 294 -12 329 -12 L329 -12 Z M188 679 L60 489 L71 489 L194 606 L196 606 L318 489 L329 489 L201 679 L188 679 Z " />
<glyph glyph-name="atilde" unicode="&#xe3;" horiz-adv-x="412" d="M171 34 C131 34 100 61 100 108 C100 161 131 201 271 236 L266 79 C235 51 207 34 171 34 L171 34 Z M329 -12 C366 -12 396 24 417 51 L409 60 C393 45 377 32 362 32 C342 32 331 42 332 73 L342 286 C347 409 306 444 215 444 C137 444 26 382 26 333 C26 309 45 294 70 294 C97 294 114 313 114 334 C114 359 91 375 91 382 C91 393 134 416 174 416 C232 416 276 387 273 286 L272 252 C88 207 30 161 30 89 C30 34 77 -11 137 -11 C185 -11 227 22 264 61 L266 60 C269 13 294 -12 329 -12 L329 -12 Z M276 504 C321 504 342 536 351 607 L340 607 C331 560 314 551 291 551 C254 551 185 614 132 614 C87 614 65 584 56 512 L68 512 C76 560 93 568 117 568 C155 568 220 504 276 504 L276 504 Z " />
<glyph glyph-name="adieresis" unicode="&#xe4;" horiz-adv-x="412" d="M171 34 C131 34 100 61 100 108 C100 161 131 201 271 236 L266 79 C235 51 207 34 171 34 L171 34 Z M329 -12 C366 -12 396 24 417 51 L409 60 C393 45 377 32 362 32 C342 32 331 42 332 73 L342 286 C347 409 306 444 215 444 C137 444 26 382 26 333 C26 309 45 294 70 294 C97 294 114 313 114 334 C114 359 91 375 91 382 C91 393 134 416 174 416 C232 416 276 387 273 286 L272 252 C88 207 30 161 30 89 C30 34 77 -11 137 -11 C185 -11 227 22 264 61 L266 60 C269 13 294 -12 329 -12 L329 -12 Z M280 517 C312 517 327 544 327 565 C327 586 312 616 280 616 C248 616 232 586 232 565 C232 544 248 517 280 517 L280 517 Z M107 517 C140 517 155 544 155 565 C155 586 140 616 107 616 C75 616 60 586 60 565 C60 544 75 517 107 517 L107 517 Z " />
<glyph glyph-name="aring" unicode="&#xe5;" horiz-adv-x="412" d="M171 34 C131 34 100 61 100 108 C100 161 131 201 271 236 L266 79 C235 51 207 34 171 34 L171 34 Z M329 -12 C366 -12 396 24 417 51 L409 60 C393 45 377 32 362 32 C342 32 331 42 332 73 L342 286 C347 409 306 444 215 444 C137 444 26 382 26 333 C26 309 45 294 70 294 C97 294 114 313 114 334 C114 359 91 375 91 382 C91 393 134 416 174 416 C232 416 276 387 273 286 L272 252 C88 207 30 161 30 89 C30 34 77 -11 137 -11 C185 -11 227 22 264 61 L266 60 C269 13 294 -12 329 -12 L329 -12 Z M207 517 C160 517 134 552 134 593 C134 634 160 669 207 669 C252 669 279 634 279 593 C279 552 252 517 207 517 L207 517 Z M207 503 C263 503 296 544 296 593 C296 642 263 683 207 683 C151 683 118 642 118 593 C118 544 151 503 207 503 L207 503 Z " />
<glyph glyph-name="ae" unicode="&#xe6;" horiz-adv-x="672" d="M348 297 C364 370 420 427 474 427 C537 427 567 369 564 299 C565 299 509 299 456 298 C424 297 388 297 348 297 L348 297 Z M173 31 C132 31 100 60 100 107 C100 159 131 200 270 235 C269 227 269 215 269 206 C269 169 276 136 289 105 C248 57 216 31 173 31 L173 31 Z M139 -14 C194 -14 243 30 296 91 C328 30 391 -13 467 -13 C547 -13 605 33 648 109 L637 115 C600 59 558 39 499 39 C410 39 342 118 342 234 C342 249 344 270 345 282 C346 282 419 282 492 281 C535 280 583 280 638 280 C640 289 641 298 641 306 C641 383 584 444 485 444 C417 444 369 418 330 374 C315 425 281 444 217 444 C135 444 26 382 26 333 C26 309 45 294 70 294 C97 294 114 313 114 334 C114 359 91 375 91 382 C91 393 134 416 174 416 C230 416 279 385 274 287 L271 252 C86 209 30 158 30 88 C30 32 78 -14 139 -14 L139 -14 Z " />
<glyph glyph-name="ccedilla" unicode="&#xe7;" horiz-adv-x="415" d="M223 -13 L225 -13 L142 -106 L142 -116 C161 -111 182 -106 206 -106 C254 -106 287 -124 287 -160 C287 -207 231 -234 136 -249 L140 -258 C245 -247 334 -212 334 -141 C334 -86 273 -55 197 -66 L246 -12 C314 -4 364 40 401 109 L389 115 C353 59 313 39 256 39 C165 39 98 119 98 235 C98 348 165 427 246 427 C281 427 312 407 316 395 C316 388 302 382 302 359 C297 328 318 304 347 304 C370 304 392 323 392 352 C392 405 331 444 249 444 C119 444 24 338 24 204 C24 81 110 -13 223 -13 L223 -13 Z " />
<glyph glyph-name="egrave" unicode="&#xe8;" horiz-adv-x="426" d="M320 298 L104 297 C120 370 176 427 230 427 C292 427 320 367 320 298 L320 298 Z M224 -13 C304 -13 360 33 403 109 L392 115 C355 59 313 39 256 39 C165 39 98 118 98 234 C98 249 99 270 102 282 L394 280 C395 289 396 297 396 306 C396 383 339 444 240 444 C114 444 24 336 24 204 C24 81 109 -13 224 -13 L224 -13 Z M78 682 L257 497 L266 497 L161 682 L78 682 Z " />
<glyph glyph-name="eacute" unicode="&#xe9;" horiz-adv-x="426" d="M320 298 L104 297 C120 370 176 427 230 427 C292 427 320 367 320 298 L320 298 Z M224 -13 C304 -13 360 33 403 109 L392 115 C355 59 313 39 256 39 C165 39 98 118 98 234 C98 249 99 270 102 282 L394 280 C395 289 396 297 396 306 C396 383 339 444 240 444 C114 444 24 336 24 204 C24 81 109 -13 224 -13 L224 -13 Z M289 682 L184 497 L194 497 L372 682 L289 682 Z " />
<glyph glyph-name="ecircumflex" unicode="&#xea;" horiz-adv-x="426" d="M320 298 L104 297 C120 370 176 427 230 427 C292 427 320 367 320 298 L320 298 Z M224 -13 C304 -13 360 33 403 109 L392 115 C355 59 313 39 256 39 C165 39 98 118 98 234 C98 249 99 270 102 282 L394 280 C395 289 396 297 396 306 C396 383 339 444 240 444 C114 444 24 336 24 204 C24 81 109 -13 224 -13 L224 -13 Z M219 679 L91 489 L102 489 L225 606 L227 606 L349 489 L360 489 L232 679 L219 679 Z " />
<glyph glyph-name="edieresis" unicode="&#xeb;" horiz-adv-x="426" d="M320 298 L104 297 C120 370 176 427 230 427 C292 427 320 367 320 298 L320 298 Z M224 -13 C304 -13 360 33 403 109 L392 115 C355 59 313 39 256 39 C165 39 98 118 98 234 C98 249 99 270 102 282 L394 280 C395 289 396 297 396 306 C396 383 339 444 240 444 C114 444 24 336 24 204 C24 81 109 -13 224 -13 L224 -13 Z M307 517 C339 517 354 544 354 565 C354 586 339 616 307 616 C275 616 259 586 259 565 C259 544 275 517 307 517 L307 517 Z M134 517 C167 517 182 544 182 565 C182 586 167 616 134 616 C102 616 87 586 87 565 C87 544 102 517 134 517 L134 517 Z " />
<glyph glyph-name="igrave" unicode="&#xec;" horiz-adv-x="232" d="M20 15 L17 0 L221 0 L218 15 L193 16 C157 19 152 21 152 29 L152 442 L17 408 L15 398 L46 393 C76 387 83 377 83 324 L83 31 C83 20 73 19 48 16 L20 15 Z M-32 682 L147 497 L156 497 L51 682 L-32 682 Z " />
<glyph glyph-name="iacute" unicode="&#xed;" horiz-adv-x="232" d="M20 15 L17 0 L221 0 L218 15 L193 16 C157 19 152 21 152 29 L152 442 L17 408 L15 398 L46 393 C76 387 83 377 83 324 L83 31 C83 20 73 19 48 16 L20 15 Z M180 682 L75 497 L85 497 L263 682 L180 682 Z " />
<glyph glyph-name="icircumflex" unicode="&#xee;" horiz-adv-x="232" d="M112 679 L-6 489 L5 489 L117 606 L119 606 L230 489 L241 489 L125 679 L112 679 Z M20 15 L17 0 L221 0 L218 15 L193 16 C157 19 152 21 152 29 L152 442 L17 408 L15 398 L46 393 C76 387 83 377 83 324 L83 31 C83 20 73 19 48 16 L20 15 Z " />
<glyph glyph-name="idieresis" unicode="&#xef;" horiz-adv-x="232" d="M20 15 L17 0 L221 0 L218 15 L193 16 C157 19 152 21 152 29 L152 442 L17 408 L15 398 L46 393 C76 387 83 377 83 324 L83 31 C83 20 73 19 48 16 L20 15 Z M205 517 C237 517 252 544 252 565 C252 586 237 616 205 616 C173 616 157 586 157 565 C157 544 173 517 205 517 L205 517 Z M32 517 C65 517 80 544 80 565 C80 586 65 616 32 616 C0 616 -15 586 -15 565 C-15 544 0 517 32 517 L32 517 Z " />
<glyph glyph-name="eth" unicode="&#xf0;" horiz-adv-x="483" d="M243 3 C155 3 100 88 100 229 C100 350 153 426 236 426 C321 426 378 337 378 204 C378 75 324 3 243 3 L243 3 Z M86 514 L223 559 C278 520 314 470 341 414 C312 433 277 443 236 443 C113 443 20 344 20 213 C20 85 110 -14 238 -14 C370 -14 459 99 459 246 C459 367 391 498 264 572 L364 605 L362 626 C339 619 319 612 301 606 C270 595 240 586 240 585 C191 610 136 627 75 635 L69 622 C121 611 165 596 202 573 L88 535 L86 514 Z " />
<glyph glyph-name="ntilde" unicode="&#xf1;" horiz-adv-x="506" d="M21 15 L18 0 L222 0 L219 15 L193 16 C157 19 151 21 151 29 L151 211 L151 339 C183 367 225 391 272 391 C332 391 363 363 363 291 L363 31 C363 23 359 19 328 16 L302 15 L299 0 L501 0 L498 15 L473 16 C433 20 431 23 431 30 L431 313 C431 358 420 392 398 414 C379 434 351 443 320 443 C255 443 195 395 153 358 L150 359 L152 442 L16 408 L15 398 L47 393 C76 388 83 377 83 324 L83 31 C83 20 74 19 47 16 L21 15 Z M328 504 C373 504 394 536 403 607 L392 607 C383 560 366 551 343 551 C306 551 237 614 184 614 C139 614 117 584 108 512 L120 512 C128 560 145 568 169 568 C207 568 272 504 328 504 L328 504 Z " />
<glyph glyph-name="ograve" unicode="&#xf2;" horiz-adv-x="495" d="M250 3 C211 3 182 17 161 40 C122 79 104 148 104 228 C104 335 160 427 246 427 C285 427 313 411 336 388 C375 349 391 281 391 205 C391 95 333 3 250 3 L250 3 Z M247 -14 C375 -14 471 88 471 220 C471 348 378 444 250 444 C122 444 24 342 24 213 C24 85 118 -14 247 -14 L247 -14 Z M87 682 L266 497 L275 497 L170 682 L87 682 Z " />
<glyph glyph-name="oacute" unicode="&#xf3;" horiz-adv-x="495" d="M250 3 C211 3 182 17 161 40 C122 79 104 148 104 228 C104 335 160 427 246 427 C285 427 313 411 336 388 C375 349 391 281 391 205 C391 95 333 3 250 3 L250 3 Z M247 -14 C375 -14 471 88 471 220 C471 348 378 444 250 444 C122 444 24 342 24 213 C24 85 118 -14 247 -14 L247 -14 Z M321 682 L216 497 L226 497 L404 682 L321 682 Z " />
<glyph glyph-name="ocircumflex" unicode="&#xf4;" horiz-adv-x="495" d="M250 3 C211 3 182 17 161 40 C122 79 104 148 104 228 C104 335 160 427 246 427 C285 427 313 411 336 388 C375 349 391 281 391 205 C391 95 333 3 250 3 L250 3 Z M247 -14 C375 -14 471 88 471 220 C471 348 378 444 250 444 C122 444 24 342 24 213 C24 85 118 -14 247 -14 L247 -14 Z M241 679 L113 489 L124 489 L247 606 L249 606 L371 489 L382 489 L254 679 L241 679 Z " />
<glyph glyph-name="otilde" unicode="&#xf5;" horiz-adv-x="495" d="M250 3 C211 3 182 17 161 40 C122 79 104 148 104 228 C104 335 160 427 246 427 C285 427 313 411 336 388 C375 349 391 281 391 205 C391 95 333 3 250 3 L250 3 Z M247 -14 C375 -14 471 88 471 220 C471 348 378 444 250 444 C122 444 24 342 24 213 C24 85 118 -14 247 -14 L247 -14 Z M320 504 C365 504 386 536 395 607 L384 607 C375 560 358 551 335 551 C298 551 229 614 176 614 C131 614 109 584 100 512 L112 512 C120 560 137 568 161 568 C199 568 264 504 320 504 L320 504 Z " />
<glyph glyph-name="odieresis" unicode="&#xf6;" horiz-adv-x="495" d="M250 3 C211 3 182 17 161 40 C122 79 104 148 104 228 C104 335 160 427 246 427 C285 427 313 411 336 388 C375 349 391 281 391 205 C391 95 333 3 250 3 L250 3 Z M247 -14 C375 -14 471 88 471 220 C471 348 378 444 250 444 C122 444 24 342 24 213 C24 85 118 -14 247 -14 L247 -14 Z M334 517 C366 517 381 544 381 565 C381 586 366 616 334 616 C302 616 286 586 286 565 C286 544 302 517 334 517 L334 517 Z M161 517 C194 517 209 544 209 565 C209 586 194 616 161 616 C129 616 114 586 114 565 C114 544 129 517 161 517 L161 517 Z " />
<glyph glyph-name="divide" unicode="&#xf7;" horiz-adv-x="549" d="M274 10 C149 10 56 106 56 235 C56 364 150 463 275 463 C399 463 492 364 492 236 C492 107 399 10 274 10 L274 10 Z M273 -12 C412 -12 516 92 516 236 C516 380 414 484 275 484 C136 484 33 378 33 234 C33 91 134 -12 273 -12 L273 -12 Z " />
<glyph glyph-name="oslash" unicode="&#xf8;" horiz-adv-x="495" d="M155 47 L346 376 C377 337 391 274 391 205 C391 95 333 3 250 3 C211 3 182 17 161 40 C158 43 156 45 155 47 L155 47 Z M335 389 L144 60 C117 101 104 160 104 228 C104 335 160 427 246 427 C285 427 312 412 335 389 L335 389 Z M122 22 L40 -120 L58 -120 L136 14 C169 -5 206 -14 247 -14 C375 -14 471 88 471 220 C471 304 431 373 367 412 L459 571 L440 571 L353 420 C322 435 289 444 250 444 C122 444 24 342 24 213 C24 130 61 62 122 22 L122 22 Z " />
<glyph glyph-name="ugrave" unicode="&#xf9;" horiz-adv-x="484" d="M349 70 L348 -16 L485 14 L486 25 L437 33 C420 36 417 41 417 60 L417 430 L276 430 L279 416 L305 413 C340 410 347 406 347 375 L347 214 L347 89 C316 62 278 38 230 38 C170 38 138 67 138 139 L140 430 L0 430 L3 416 L27 413 C69 410 70 408 70 400 L70 117 C70 72 80 39 101 16 C123 -4 150 -14 182 -14 C248 -14 304 33 347 70 L349 70 Z M100 682 L279 497 L288 497 L183 682 L100 682 Z " />
<glyph glyph-name="uacute" unicode="&#xfa;" horiz-adv-x="484" d="M349 70 L348 -16 L485 14 L486 25 L437 33 C420 36 417 41 417 60 L417 430 L276 430 L279 416 L305 413 C340 410 347 406 347 375 L347 214 L347 89 C316 62 278 38 230 38 C170 38 138 67 138 139 L140 430 L0 430 L3 416 L27 413 C69 410 70 408 70 400 L70 117 C70 72 80 39 101 16 C123 -4 150 -14 182 -14 C248 -14 304 33 347 70 L349 70 Z M311 682 L206 497 L216 497 L394 682 L311 682 Z " />
<glyph glyph-name="ucircumflex" unicode="&#xfb;" horiz-adv-x="484" d="M349 70 L348 -16 L485 14 L486 25 L437 33 C420 36 417 41 417 60 L417 430 L276 430 L279 416 L305 413 C340 410 347 406 347 375 L347 214 L347 89 C316 62 278 38 230 38 C170 38 138 67 138 139 L140 430 L0 430 L3 416 L27 413 C69 410 70 408 70 400 L70 117 C70 72 80 39 101 16 C123 -4 150 -14 182 -14 C248 -14 304 33 347 70 L349 70 Z M231 679 L103 489 L114 489 L237 606 L239 606 L361 489 L372 489 L244 679 L231 679 Z " />
<glyph glyph-name="udieresis" unicode="&#xfc;" horiz-adv-x="484" d="M349 70 L348 -16 L485 14 L486 25 L437 33 C420 36 417 41 417 60 L417 430 L276 430 L279 416 L305 413 C340 410 347 406 347 375 L347 214 L347 89 C316 62 278 38 230 38 C170 38 138 67 138 139 L140 430 L0 430 L3 416 L27 413 C69 410 70 408 70 400 L70 117 C70 72 80 39 101 16 C123 -4 150 -14 182 -14 C248 -14 304 33 347 70 L349 70 Z M327 517 C359 517 374 544 374 565 C374 586 359 616 327 616 C295 616 279 586 279 565 C279 544 295 517 327 517 L327 517 Z M154 517 C187 517 202 544 202 565 C202 586 187 616 154 616 C122 616 107 586 107 565 C107 544 122 517 154 517 L154 517 Z " />
<glyph glyph-name="yacute" unicode="&#xfd;" horiz-adv-x="448" d="M87 -258 C147 -258 178 -211 209 -115 L246 3 L362 313 C394 397 397 410 434 413 L455 415 L458 429 L287 429 L290 415 L313 412 C365 407 372 396 345 323 L259 86 L142 369 C130 400 135 410 166 413 L189 415 L191 429 L-10 429 L-7 415 L17 412 C45 409 47 403 66 362 L225 -8 L225 -9 L196 -98 C173 -167 157 -203 126 -211 C119 -184 102 -165 74 -165 C47 -165 28 -184 28 -211 C28 -238 54 -258 87 -258 L87 -258 Z M299 682 L194 497 L204 497 L382 682 L299 682 Z " />
<glyph glyph-name="thorn" unicode="&#xfe;" horiz-adv-x="483" d="M247 6 C196 6 150 40 123 83 L123 330 C154 363 192 391 241 391 C326 391 381 309 381 202 C381 90 329 6 247 6 L247 6 Z M-7 -236 L-10 -251 L210 -251 L207 -236 L166 -235 C127 -232 123 -230 123 -223 L123 10 L126 10 C154 -2 192 -14 235 -14 C351 -14 459 84 459 229 C459 352 382 439 280 439 C216 439 167 402 126 355 L123 357 L123 680 L-14 647 L-15 636 L23 628 C50 623 55 614 55 583 L55 -220 C55 -231 45 -232 20 -235 L-7 -236 Z " />
<glyph glyph-name="ydieresis" unicode="&#xff;" horiz-adv-x="448" d="M87 -258 C147 -258 178 -211 209 -115 L246 3 L362 313 C394 397 397 410 434 413 L455 415 L458 429 L287 429 L290 415 L313 412 C365 407 372 396 345 323 L259 86 L142 369 C130 400 135 410 166 413 L189 415 L191 429 L-10 429 L-7 415 L17 412 C45 409 47 403 66 362 L225 -8 L225 -9 L196 -98 C173 -167 157 -203 126 -211 C119 -184 102 -165 74 -165 C47 -165 28 -184 28 -211 C28 -238 54 -258 87 -258 L87 -258 Z M319 517 C351 517 366 544 366 565 C366 586 351 616 319 616 C287 616 271 586 271 565 C271 544 287 517 319 517 L319 517 Z M146 517 C179 517 194 544 194 565 C194 586 179 616 146 616 C114 616 99 586 99 565 C99 544 114 517 146 517 L146 517 Z " />
<glyph glyph-name="dotlessi" unicode="&#x131;" horiz-adv-x="232" d="M20 15 L17 0 L221 0 L218 15 L193 16 C157 19 152 21 152 29 L152 442 L17 408 L15 398 L46 393 C76 387 83 377 83 324 L83 31 C83 20 73 19 48 16 L20 15 Z " />
<glyph glyph-name="Lslash" unicode="&#x141;" horiz-adv-x="550" d="M19 231 L115 261 L115 35 C115 28 105 23 77 20 L27 15 L24 0 L484 0 L518 195 L499 195 L487 149 C452 68 430 18 283 18 L194 21 L194 285 L301 318 L299 338 L194 305 L194 589 C194 596 204 602 231 605 L296 610 L299 625 L25 625 L28 610 L70 606 C110 602 115 599 115 592 L115 281 L19 252 L19 231 Z " />
<glyph glyph-name="lslash" unicode="&#x142;" horiz-adv-x="226" d="M5 222 L79 244 L79 32 C79 21 70 21 45 18 L17 15 L15 0 L219 0 L216 15 L186 18 C151 21 148 23 148 31 L148 265 L219 287 L218 307 L148 285 L148 680 L10 646 L9 635 L47 628 C73 623 79 612 79 567 L79 264 L6 242 L5 222 Z " />
<glyph glyph-name="OE" unicode="&#x152;" horiz-adv-x="920" d="M466 20 L408 20 C209 20 117 153 117 325 C117 474 208 603 389 606 L466 591 L466 20 Z M392 0 L851 0 L886 184 L869 185 L857 146 C828 72 793 21 644 18 L543 21 L543 316 L598 315 C695 312 715 306 718 251 L721 223 L734 222 L754 424 L741 425 L730 396 C714 344 695 337 604 334 L543 333 L543 607 L636 607 C770 607 797 571 826 488 L837 447 L851 447 L838 625 L413 624 C165 624 33 485 33 302 C33 121 163 -3 392 0 L392 0 Z " />
<glyph glyph-name="oe" unicode="&#x153;" horiz-adv-x="793" d="M688 299 L472 297 C488 370 542 427 597 427 C659 427 688 369 688 299 L688 299 Z M250 3 C211 3 182 18 161 41 C124 80 104 149 104 226 C104 337 160 427 246 427 C285 427 314 410 337 387 C374 348 391 281 391 205 C391 93 333 3 250 3 L250 3 Z M247 -14 C324 -14 389 25 428 85 C463 25 517 -13 590 -13 C670 -13 728 33 771 109 L760 115 C723 59 680 39 623 39 C534 39 466 118 466 234 C466 249 466 270 469 282 C470 282 543 282 616 281 C659 280 707 280 761 280 C763 289 764 298 764 306 C764 383 705 444 608 444 C532 444 470 405 433 342 C396 406 330 444 250 444 C123 444 24 342 24 213 C24 85 118 -14 247 -14 L247 -14 Z " />
<glyph glyph-name="Scaron" unicode="&#x160;" horiz-adv-x="488" d="M233 -14 C364 -14 455 78 455 178 C455 285 375 333 272 367 C187 399 124 428 124 506 C124 570 172 621 251 621 C294 621 329 608 357 589 L411 467 L426 467 L420 632 L376 620 C345 631 306 639 255 639 C134 639 62 560 62 469 C62 371 138 328 231 296 C331 262 387 224 387 142 C387 64 329 4 238 4 C170 4 115 31 82 94 L55 170 L39 170 L50 18 C103 -1 173 -15 233 -14 L233 -14 Z M118 862 L246 672 L259 672 L387 862 L376 862 L254 743 L252 743 L129 862 L118 862 Z " />
<glyph glyph-name="scaron" unicode="&#x161;" horiz-adv-x="363" d="M167 -14 C271 -14 333 52 333 124 C333 208 269 235 202 259 C140 281 97 298 97 352 C97 397 128 427 183 427 C214 427 239 414 256 401 L297 317 L314 317 L308 437 L276 427 C249 438 221 444 186 444 C102 444 41 390 41 319 C41 241 103 214 163 192 C230 171 274 145 274 90 C274 39 233 3 174 3 C131 3 93 28 68 72 L47 130 L30 130 L39 9 C76 -6 118 -14 167 -14 L167 -14 Z M47 673 L175 483 L188 483 L316 673 L305 673 L183 554 L181 554 L58 673 L47 673 Z " />
<glyph glyph-name="Ydieresis" unicode="&#x178;" horiz-adv-x="607" d="M168 15 L165 0 L443 0 L440 15 L391 18 C348 22 343 24 343 31 L343 288 L466 506 C513 593 529 603 571 608 L599 610 L602 625 L387 625 L390 610 L422 608 C482 600 484 582 441 502 L333 306 L330 306 L195 542 C167 590 167 605 210 608 L248 610 L251 625 L-5 625 L-2 610 L32 607 C68 604 82 589 105 548 L265 275 L265 34 C265 27 254 22 225 19 L168 15 Z M397 684 C429 684 444 711 444 732 C444 753 429 783 397 783 C365 783 349 753 349 732 C349 711 365 684 397 684 L397 684 Z M224 684 C257 684 272 711 272 732 C272 753 257 783 224 783 C192 783 177 753 177 732 C177 711 192 684 224 684 L224 684 Z " />
<glyph glyph-name="Zcaron" unicode="&#x17d;" horiz-adv-x="562" d="M32 12 L32 0 L507 0 L536 198 L517 198 L505 157 C473 69 444 17 284 17 L127 18 L127 21 L522 612 L522 625 L65 625 L51 445 L67 445 L76 482 C102 558 137 608 281 608 L429 608 L429 605 L32 12 Z M150 852 L278 662 L291 662 L419 852 L408 852 L286 733 L284 733 L161 852 L150 852 Z " />
<glyph glyph-name="zcaron" unicode="&#x17e;" horiz-adv-x="418" d="M21 12 L21 0 L361 0 L396 151 L381 151 L360 108 C325 48 292 16 181 16 L103 17 L380 417 L380 429 L45 429 L43 278 L59 278 L70 319 C94 385 116 413 227 413 L297 413 L21 12 Z M70 673 L198 483 L211 483 L339 673 L328 673 L206 554 L204 554 L81 673 L70 673 Z " />
<glyph glyph-name="florin" unicode="&#x192;" horiz-adv-x="482" d="M70 -54 C102 -54 140 -45 169 -14 C220 37 255 143 284 274 L304 362 L431 362 L434 398 L310 398 C337 529 357 604 402 612 C410 612 421 611 430 610 C435 609 441 608 446 607 C419 571 439 533 474 533 C497 533 519 553 519 580 C519 613 487 637 440 637 C401 637 363 622 332 591 C295 554 265 491 244 401 L142 394 L133 364 L234 362 L213 246 C173 42 150 -16 112 -24 C104 -24 78 -30 73 -27 C94 11 72 44 40 44 C13 44 -5 25 -5 0 C-5 -31 25 -54 70 -54 L70 -54 Z " />
<glyph glyph-name="circumflex" unicode="&#x2c6;" horiz-adv-x="379" d="M183 679 L55 489 L66 489 L189 606 L191 606 L313 489 L324 489 L196 679 L183 679 Z " />
<glyph glyph-name="caron" unicode="&#x2c7;" horiz-adv-x="379" d="M55 679 L183 489 L196 489 L324 679 L313 679 L191 560 L189 560 L66 679 L55 679 Z " />
<glyph glyph-name="breve" unicode="&#x2d8;" horiz-adv-x="379" d="M190 492 C278 492 299 581 318 661 L308 661 C280 585 246 539 191 539 C136 539 102 585 74 661 L64 661 C83 581 105 492 190 492 L190 492 Z " />
<glyph glyph-name="dotaccent" unicode="&#x2d9;" horiz-adv-x="379" d="M190 530 C223 530 238 558 238 579 C238 602 223 630 190 630 C157 630 141 602 141 579 C141 558 157 530 190 530 L190 530 Z " />
<glyph glyph-name="ring" unicode="&#x2da;" horiz-adv-x="379" d="M190 517 C143 517 117 552 117 593 C117 634 143 669 190 669 C235 669 262 634 262 593 C262 552 235 517 190 517 L190 517 Z M190 503 C246 503 279 544 279 593 C279 642 246 683 190 683 C134 683 101 642 101 593 C101 544 134 503 190 503 L190 503 Z " />
<glyph glyph-name="ogonek" unicode="&#x2db;" horiz-adv-x="379" d="M188 -230 C231 -230 265 -202 288 -175 L283 -166 C264 -182 245 -198 214 -198 C173 -198 143 -168 143 -124 C143 -69 184 -23 263 16 L240 16 C182 -8 92 -63 92 -141 C92 -191 137 -230 188 -230 L188 -230 Z " />
<glyph glyph-name="tilde" unicode="&#x2dc;" horiz-adv-x="379" d="M262 504 C307 504 328 536 337 607 L326 607 C317 560 300 551 277 551 C240 551 171 614 118 614 C73 614 51 584 42 512 L54 512 C62 560 79 568 103 568 C141 568 206 504 262 504 L262 504 Z " />
<glyph glyph-name="hungarumlaut" unicode="&#x2dd;" horiz-adv-x="379" d="M317 682 L217 497 L229 497 L392 682 L317 682 Z M172 682 L72 497 L84 497 L248 682 L172 682 Z " />
<glyph glyph-name="pi" unicode="&#x3c0;" horiz-adv-x="713" d="M377 301 C353 301 340 305 327 308 L327 479 L366 480 C438 480 467 448 467 392 C467 335 436 301 377 301 L377 301 Z M221 137 L220 124 L392 124 L390 137 L353 140 C330 141 327 145 327 149 L327 292 C340 291 358 288 377 288 C455 288 518 334 518 398 C518 455 473 493 380 493 L220 493 L222 481 L251 478 C275 475 278 474 278 469 L278 150 C278 145 270 142 255 140 L221 137 Z M357 2 C186 2 47 142 47 313 C47 484 186 624 357 624 C527 624 666 484 666 313 C666 142 527 2 357 2 L357 2 Z M357 -14 C538 -14 684 132 684 313 C684 493 538 641 357 641 C176 641 30 493 30 313 C30 132 176 -14 357 -14 L357 -14 Z " />
<glyph glyph-name="endash" unicode="&#x2013;" horiz-adv-x="439" d="M14 254 L11 218 L426 218 L427 254 L14 254 Z " />
<glyph glyph-name="emdash" unicode="&#x2014;" horiz-adv-x="908" d="M14 254 L11 218 L896 218 L897 254 L14 254 Z " />
<glyph glyph-name="quoteleft" unicode="&#x2018;" horiz-adv-x="184" d="M103 416 C142 416 161 446 156 470 C140 467 80 478 80 531 C80 584 121 620 160 646 L152 653 C83 621 26 560 26 497 C26 446 60 416 103 416 L103 416 Z " />
<glyph glyph-name="quoteright" unicode="&#x2019;" horiz-adv-x="183" d="M24 420 L33 412 C100 444 157 502 157 566 C157 617 123 650 82 650 C41 650 25 618 28 595 C43 595 103 588 103 532 C103 481 62 445 24 420 L24 420 Z " />
<glyph glyph-name="quotesinglbase" unicode="&#x201a;" horiz-adv-x="183" d="M24 -119 L33 -127 C100 -95 157 -37 157 27 C157 78 123 111 82 111 C41 111 25 79 28 56 C43 56 103 49 103 -7 C103 -58 62 -94 24 -119 L24 -119 Z " />
<glyph glyph-name="quotedblleft" unicode="&#x201c;" horiz-adv-x="351" d="M103 416 C142 416 161 446 156 470 C140 467 80 478 80 531 C80 584 121 620 160 646 L152 653 C83 621 26 560 26 497 C26 446 60 416 103 416 L103 416 Z M272 416 C312 416 330 446 325 470 C310 468 250 477 250 531 C250 584 291 620 330 646 L321 653 C254 621 196 560 196 497 C196 446 231 416 272 416 L272 416 Z " />
<glyph glyph-name="quotedblright" unicode="&#x201d;" horiz-adv-x="350" d="M194 420 L202 412 C270 444 327 502 327 566 C327 617 294 650 251 650 C211 650 195 618 198 595 C213 595 273 588 273 532 C273 481 232 445 194 420 L194 420 Z M24 420 L33 412 C100 444 157 502 157 566 C157 617 123 650 82 650 C41 650 25 618 28 595 C43 595 103 588 103 532 C103 481 62 445 24 420 L24 420 Z " />
<glyph glyph-name="quotedblbase" unicode="&#x201e;" horiz-adv-x="350" d="M194 -119 L202 -127 C270 -95 327 -37 327 27 C327 78 294 111 251 111 C211 111 195 79 198 56 C213 56 273 49 273 -7 C273 -58 232 -94 194 -119 L194 -119 Z M24 -119 L33 -127 C100 -95 157 -37 157 27 C157 78 123 111 82 111 C41 111 25 79 28 56 C43 56 103 49 103 -7 C103 -58 62 -94 24 -119 L24 -119 Z " />
<glyph glyph-name="dagger" unicode="&#x2020;" horiz-adv-x="444" d="M213 408 L213 -156 L232 -156 L232 408 L428 408 L430 426 L232 426 L232 625 L213 625 L213 426 L16 426 L17 408 L213 408 Z " />
<glyph glyph-name="daggerdbl" unicode="&#x2021;" horiz-adv-x="444" d="M213 31 L213 -156 L232 -156 L232 31 L430 31 L428 50 L232 50 L232 418 L428 418 L430 437 L232 437 L232 625 L213 625 L213 437 L16 437 L17 418 L213 418 L213 50 L17 50 L16 31 L213 31 Z " />
<glyph glyph-name="bullet" unicode="&#x2022;" horiz-adv-x="434" d="M217 39 C246 39 335 74 354 96 C375 117 410 203 410 232 C410 259 375 350 354 368 C336 389 245 424 218 424 C190 424 102 388 82 368 C62 348 25 260 25 232 C25 202 63 118 82 96 C101 75 189 39 217 39 L217 39 Z " />
<glyph glyph-name="ellipsis" unicode="&#x2026;" horiz-adv-x="589" d="M295 -13 C327 -13 349 12 349 41 C349 69 327 94 295 94 C263 94 240 69 240 41 C240 12 263 -13 295 -13 L295 -13 Z M159 -13 C191 -13 213 12 213 41 C213 69 191 94 159 94 C127 94 104 69 104 41 C104 12 127 -13 159 -13 L159 -13 Z M431 -13 C463 -13 485 12 485 41 C485 69 463 94 431 94 C399 94 376 69 376 41 C376 12 399 -13 431 -13 L431 -13 Z " />
<glyph glyph-name="perthousand" unicode="&#x2030;" horiz-adv-x="910" d="M147 365 C232 365 285 428 285 503 C285 578 232 643 147 643 C63 643 11 578 11 503 C11 428 63 365 147 365 L147 365 Z M511 640 L58 -14 L82 -14 L534 640 L511 640 Z M762 -17 C847 -17 899 46 899 121 C899 196 847 261 762 261 C677 261 625 196 625 121 C625 46 677 -17 762 -17 L762 -17 Z M446 -17 C531 -17 583 46 583 121 C583 196 531 261 446 261 C362 261 310 196 310 121 C310 46 362 -17 446 -17 L446 -17 Z M147 384 C78 384 33 438 33 503 C33 567 78 624 147 624 C219 624 263 567 263 503 C263 438 219 384 147 384 L147 384 Z M762 2 C690 2 647 54 647 121 C647 185 691 242 762 242 C832 242 877 185 877 121 C877 54 833 2 762 2 L762 2 Z M446 2 C374 2 332 54 332 121 C332 185 375 242 446 242 C517 242 561 185 561 121 C561 54 518 2 446 2 L446 2 Z " />
<glyph glyph-name="guilsinglleft" unicode="&#x2039;" horiz-adv-x="256" d="M20 213 L226 47 L230 56 L95 222 L230 388 L225 396 L20 230 L20 213 Z " />
<glyph glyph-name="guilsinglright" unicode="&#x203a;" horiz-adv-x="256" d="M26 56 L31 47 L237 213 L237 230 L32 396 L26 388 L161 222 L26 56 Z " />
<glyph glyph-name="fraction" unicode="&#x2044;" horiz-adv-x="487" d="M468 640 L-7 -14 L19 -14 L494 640 L468 640 Z " />
<glyph glyph-name="Euro" unicode="&#x20ac;" horiz-adv-x="488" d="M296 -14 C383 -14 439 39 482 116 L471 123 C436 65 388 36 325 36 C241 36 170 104 146 220 L345 220 L342 238 L142 238 C138 264 136 289 136 314 C136 325 137 337 137 348 L345 348 L342 367 L139 367 C152 511 227 614 322 614 C357 614 377 598 388 585 C372 558 380 506 426 506 C450 506 470 526 470 550 C470 598 414 632 331 632 C205 632 97 527 70 367 L8 367 L5 348 L67 348 C64 332 63 313 63 294 C63 277 64 258 66 238 L8 238 L5 220 L69 220 C93 77 186 -14 296 -14 L296 -14 Z " />
<glyph glyph-name="trademark" unicode="&#x2122;" horiz-adv-x="555" d="M254 414 L252 403 L336 403 L335 414 L319 415 C303 416 300 419 300 443 L304 602 C305 602 305 601 306 601 L308 601 L374 407 L388 407 L462 605 L465 605 L468 429 C469 420 467 419 459 416 L438 414 L438 403 L540 403 L539 414 L521 416 C509 419 508 419 507 428 L503 606 C503 609 506 611 513 612 L535 615 L537 625 L456 625 L396 457 L392 457 L337 625 L258 625 L259 615 L278 612 C286 611 289 610 293 603 L288 444 C288 419 285 416 270 415 L254 414 Z M74 414 L72 403 L181 403 L180 414 L159 416 C148 419 146 418 146 421 L146 614 L157 614 C196 614 206 600 218 571 L222 554 L231 554 L227 625 L31 625 L23 554 L32 554 L37 570 C49 597 62 613 99 614 L109 614 L109 422 C109 419 105 417 98 416 L74 414 Z " />
<glyph glyph-name="Omega" unicode="&#x2126;" horiz-adv-x="548" d="M25 15 L22 0 L243 0 L240 15 L192 18 C157 19 156 23 156 31 L156 391 L351 391 L351 31 C351 20 341 19 316 16 L288 15 L285 0 L506 0 L503 15 L458 16 C422 19 419 21 419 29 L419 390 L526 390 L538 429 L419 429 L419 469 C419 565 438 625 491 648 L508 646 C509 645 509 644 509 643 L509 639 C516 607 540 583 567 583 C591 583 609 601 609 624 C609 651 584 673 541 673 C453 673 361 598 350 453 L349 429 L156 429 L156 460 C156 561 181 624 246 643 L274 635 C273 598 299 568 330 568 C354 568 371 586 371 609 C371 641 342 663 291 663 C191 663 103 592 87 445 L85 429 L22 429 L10 392 L87 390 L87 32 C87 21 77 19 54 18 L25 15 Z " />
<glyph glyph-name="Delta" unicode="&#x2206;" horiz-adv-x="451" d="M161 -13 C264 -13 347 72 347 151 L347 590 C347 597 357 602 385 605 L440 611 L443 626 L169 626 L172 611 L223 606 C263 603 268 599 268 592 L268 162 C268 49 237 5 161 5 C122 5 94 19 79 40 C110 48 116 69 116 86 C116 110 96 132 67 132 C36 132 16 109 16 78 C16 38 54 -13 161 -13 L161 -13 Z " />
<glyph glyph-name="radical" unicode="&#x221a;" horiz-adv-x="764" d="M682 680 L624 658 C608 668 587 673 561 673 C455 673 363 598 350 454 L349 429 L156 429 L156 460 C156 561 181 624 246 643 L274 635 C273 598 299 568 330 568 C354 568 371 586 371 609 C371 641 342 663 291 663 C191 663 103 592 87 445 L85 429 L22 429 L10 392 L87 390 L87 32 C87 21 77 19 54 18 L25 15 L22 0 L243 0 L240 15 L192 18 C157 19 156 23 156 31 L156 391 L351 391 L351 31 C351 20 341 19 316 16 L288 15 L285 0 L505 0 L502 15 L458 16 C421 19 419 21 419 29 L419 391 L614 391 L614 31 C614 20 606 19 579 16 L552 15 L549 0 L752 0 L749 15 L724 16 C688 19 682 21 682 29 L682 680 Z M614 573 L614 429 L419 429 L419 470 C419 571 446 633 511 652 L551 641 C551 602 575 573 610 573 L614 573 Z " />
<glyph glyph-name="approxequal" unicode="&#x2248;" horiz-adv-x="763" d="M25 15 L22 0 L243 0 L240 15 L192 18 C157 19 156 23 156 31 L156 391 L351 391 L351 31 C351 20 341 19 316 16 L288 15 L285 0 L505 0 L502 15 L458 16 C421 19 419 21 419 29 L419 391 L614 391 L614 31 C614 20 605 19 580 16 L552 14 L549 0 L752 0 L749 15 L724 16 C688 19 682 21 682 29 L682 441 L602 429 L419 429 L419 470 C419 571 445 633 512 652 L550 642 C549 601 573 571 608 571 C631 571 650 589 650 612 C650 651 613 673 562 673 C454 673 363 598 350 454 L349 429 L156 429 L156 460 C156 561 181 624 246 643 L274 635 C273 599 299 568 330 568 C354 568 371 586 371 609 C371 641 342 663 291 663 C191 663 103 592 87 445 L85 429 L22 429 L10 392 L87 390 L87 32 C87 21 77 19 54 18 L25 15 Z " />
<glyph glyph-name="apple" unicode="&#xf8ff;" horiz-adv-x="758" d="M442 169 L378 -17 L316 169 L141 81 L228 256 L42 320 L228 382 L141 558 L316 471 L380 656 L442 471 L618 558 L531 382 L715 321 L531 258 L618 81 L442 169 Z M294 115 L378 -65 L463 116 L652 47 L583 236 L763 321 L583 403 L652 592 L463 523 L380 704 L294 523 L107 592 L175 403 L-6 320 L175 234 L107 47 L294 115 Z " />
<glyph glyph-name="fi" unicode="&#xfb01;" horiz-adv-x="502" d="M25 15 L22 0 L242 0 L239 15 L194 16 C158 19 156 21 156 29 L156 391 L351 391 L351 31 C351 20 343 19 316 16 L288 15 L285 0 L488 0 L486 15 L461 16 C424 19 419 21 419 29 L419 441 L339 429 L156 429 L156 470 C156 571 183 633 248 652 L287 642 C286 601 309 571 344 571 C369 571 386 589 386 612 C386 651 349 673 298 673 C194 673 98 598 87 454 L85 429 L22 429 L10 392 L87 390 L87 31 C87 20 77 19 52 16 L25 15 Z " />
<glyph glyph-name="fl" unicode="&#xfb02;" horiz-adv-x="501" d="M359 657 C343 668 322 673 297 673 C192 673 98 598 87 454 L85 429 L22 429 L10 392 L87 390 L87 31 C87 20 77 19 52 16 L25 15 L22 0 L242 0 L239 15 L194 16 C158 19 156 21 156 29 L156 391 L351 391 L351 31 C351 20 342 19 315 16 L288 15 L285 0 L488 0 L486 15 L461 16 C424 19 419 21 419 29 L419 680 C408 676 398 672 389 669 C374 662 359 658 359 657 L359 657 Z M351 574 L351 429 L156 429 L156 470 C156 571 182 633 247 652 L284 641 C283 602 308 573 343 573 C346 573 349 573 351 574 L351 574 Z " />
</font>
</svg>
