<?xml version="1.0" encoding="utf-8"?>
<!-- Generator: Adobe Illustrator 23.0.2, SVG Export Plug-In . SVG Version: 6.00 Build 0)  -->
<svg version="1.1" id="Layer_1" xmlns="http://www.w3.org/2000/svg" xmlns:xlink="http://www.w3.org/1999/xlink" x="0px" y="0px"
	 viewBox="0 0 23.9 23.9" style="enable-background:new 0 0 23.9 23.9;" xml:space="preserve">
<style type="text/css">
	.st0{fill:#FFFFFF;}
</style>
<path class="st0" d="M17.3,0H6.6C3,0,0,3,0,6.6v10.7c0,3.6,3,6.6,6.6,6.6h10.7c3.6,0,6.6-3,6.6-6.6V6.6C23.9,3,20.9,0,17.3,0z
	 M21.8,17.3c0,2.5-2,4.5-4.5,4.5H6.6c-2.5,0-4.5-2-4.5-4.5V6.6c0-2.5,2-4.5,4.5-4.5l0,0h10.7c2.5,0,4.5,2,4.5,4.5V17.3z"/>
<path class="st0" d="M11.9,5.8c-3.4,0-6.1,2.8-6.1,6.2s2.8,6.1,6.1,6.1s6.2-2.8,6.2-6.1C18.1,8.5,15.3,5.8,11.9,5.8z M11.9,16
	c-2.2,0-4-1.8-4-4s1.8-4,4-4s4,1.8,4,4C16,14.2,14.2,16,11.9,16C12,16,12,16,11.9,16L11.9,16z"/>
<path class="st0" d="M18.4,4c-0.4,0-0.8,0.2-1.1,0.5c-0.3,0.3-0.5,0.7-0.5,1.1c0,0.9,0.7,1.6,1.5,1.6c0.9,0,1.6-0.7,1.6-1.6
	c0-0.4-0.2-0.8-0.5-1.1C19.2,4.2,18.8,4,18.4,4z"/>
</svg>
