<?xml version="1.0" encoding="utf-8"?>
<!-- Generator: Adobe Illustrator 23.0.2, SVG Export Plug-In . SVG Version: 6.00 Build 0)  -->
<svg version="1.1" id="Layer_1" xmlns="http://www.w3.org/2000/svg" xmlns:xlink="http://www.w3.org/1999/xlink" x="0px" y="0px"
	 viewBox="0 0 25.1 20.4" style="enable-background:new 0 0 25.1 20.4;" xml:space="preserve">
<style type="text/css">
	.st0{fill:#FFFFFF;}
</style>
<path class="st0" d="M25.1,2.4c-1,0.4-2,0.7-3,0.8c1.1-0.6,1.9-1.7,2.3-2.8c-1,0.6-2.1,1-3.3,1.2c-1.9-2.1-5.2-2.2-7.3-0.2
	c-1,1-1.6,2.3-1.6,3.8c0,0.4,0,0.8,0.1,1.2c-4.1-0.2-8-2.2-10.6-5.4C0.4,3.3,1.1,6.3,3.3,7.8C2.5,7.8,1.7,7.6,1,7.2v0.1
	c0,2.4,1.7,4.5,4.1,5c-0.4,0.1-0.9,0.2-1.3,0.2c-0.3,0-0.7,0-1-0.1C3.4,14.5,5.4,16,7.6,16c-1.8,1.4-4.1,2.2-6.4,2.2
	c-0.4,0-0.8-0.1-1.2-0.1c2.4,1.5,5.1,2.3,7.9,2.3c8,0.1,14.6-6.4,14.7-14.5c0-0.1,0-0.1,0-0.2V5.1C23.6,4.4,24.4,3.4,25.1,2.4z"/>
</svg>
